SplineFontDB: 3.0
FontName: Sisperdotze-Regular
FullName: Sisperdotze Regular
FamilyName: Sisperdotze
Weight: Regular
Copyright: This Font Software is licensed under the SIL Open Font License, Version 1.1.\nYou should have received a copy of the license along with this Font Software\neither in stand-alone text files, human-readable headers or in the appropriate\nmachine-readable metadata fields within text or binary files.\n\nIf this is not the case, go to http://scripts.sil.org/OFL for all\nthe details including a FAQ.\n\nThis program is distributed in the hope that it will be useful, but WITHOUT ANY\nWARRANTY; without even the implied warranty of MERCHANTABILITY or FITNESS FOR A\nPARTICULAR PURPOSE. See the SIL Open Font License for more details.
FontLog: "This font was produced during the Fonts.txt workshop, which took place in the 7th of November 2014 at BAU Barcelona. It was collectively designed by Kira Riera Contijoch, Mar+AO0A-a Florencia Fern+AOEA-ndez, Maria Luisa Jimenez, Irene Farr+AOkA M+AOEA-rquez, +ANMA-scar Pereira and Dario Trapasso.+AAoACgAA-Built with love, graphicoreBMFB and Fontforge." 
Version: 0
ItalicAngle: 0
UnderlinePosition: 249
UnderlineWidth: 125
Ascent: 800
Descent: 200
sfntRevision: 0x00000000
LayerCount: 2
Layer: 0 0 "Back"  1
Layer: 1 0 "Fore"  0
XUID: [1021 480 1043172110 2623554]
FSType: 0
OS2Version: 4
OS2_WeightWidthSlopeOnly: 0
OS2_UseTypoMetrics: 1
CreationTime: 1415792882
ModificationTime: 1415796729
PfmFamily: 17
TTFWeight: 400
TTFWidth: 5
LineGap: 90
VLineGap: 0
Panose: 2 0 5 9 0 0 0 0 0 0
OS2TypoAscent: 800
OS2TypoAOffset: 0
OS2TypoDescent: -200
OS2TypoDOffset: 0
OS2TypoLinegap: 90
OS2WinAscent: 1375
OS2WinAOffset: 0
OS2WinDescent: 125
OS2WinDOffset: 0
HheadAscent: 1375
HheadAOffset: 0
HheadDescent: -125
HheadDOffset: 0
OS2SubXSize: 650
OS2SubYSize: 700
OS2SubXOff: 0
OS2SubYOff: 140
OS2SupXSize: 650
OS2SupYSize: 700
OS2SupXOff: 0
OS2SupYOff: 480
OS2StrikeYSize: 49
OS2StrikeYPos: 258
OS2Vendor: 'PfEd'

StartChar: .notdef
Encoding: 65536 -1 0
Width: 1000
Flags: MW
HStem: 0 50<100 900 100 950> 483 50<100 900 100 100>
VStem: 50 50<50 50 50 483> 900 50<50 483 483 483>
LayerCount: 2
Fore
SplineSet
50 0 m 1
 50 533 l 1
 950 533 l 1
 950 0 l 1
 50 0 l 1
100 50 m 1
 900 50 l 1
 900 483 l 1
 100 483 l 1
 100 50 l 1
EndSplineSet
EndChar

StartChar: zero
Encoding: 48 48 2
Width: 1000
Flags: MW
HStem: -125 125<254.5 381 381 619> 0 125<129.5 256 256 369 631 744> 500 125<250 494 369 494 379.5 494 381 494> 625 125<381 619 494 619 504.5 619 506 619> 1125 125<131 369 244 369 254.5 369 256 369 631 744> 1250 125<256 619 369 619 379.5 619 381 619 381 744>
VStem: 125 125<131 375 500 1119> 250 125<6 119 506 619 619 620.5 1131 1244> 375 125<379.5 506 381 506 506 619 504.5 620.5> 500 125<631 744> 625 125<-120.5 6 -119 6 6 119 4.5 120.5 629.5 631 631 744 1131 1244> 750 125<4.5 131 6 131 131 750 750 750 875 1119>
LayerCount: 2
Fore
SplineSet
381 1250 m 2x04a0
 378 1250 375 1253 375 1256 c 2
 375 1369 l 2
 375 1372 378 1375 381 1375 c 2
 619 1375 l 2
 622 1375 625 1372 625 1369 c 2
 625 1256 l 2
 625 1253 622 1250 619 1250 c 2
 381 1250 l 2x04a0
256 1125 m 2x09
 253 1125 250 1128 250 1131 c 2
 250 1244 l 2
 250 1247 253 1250 256 1250 c 2
 369 1250 l 2
 372 1250 375 1247 375 1244 c 2
 375 1131 l 2
 375 1128 372 1125 369 1125 c 2
 256 1125 l 2x09
631 1125 m 2
 628 1125 625 1128 625 1131 c 2
 625 1244 l 2
 625 1247 628 1250 631 1250 c 2
 744 1250 l 2
 747 1250 750 1247 750 1244 c 2
 750 1131 l 2x0820
 750 1128 747 1125 744 1125 c 2
 631 1125 l 2
631 750 m 2x5810
 628 750 625 753 625 756 c 2
 625 869 l 2x5820
 625 872 628 875 631 875 c 2
 750 875 l 1
 750 1119 l 2
 750 1122 753 1125 756 1125 c 2
 869 1125 l 2
 872 1125 875 1122 875 1119 c 2
 875 131 l 2
 875 128 872 125 869 125 c 2
 756 125 l 2
 753 125 750 128 750 131 c 2
 750 750 l 1
 631 750 l 2x5810
506 625 m 2
 503 625 500 628 500 631 c 2
 500 744 l 2
 500 747 503 750 506 750 c 2
 619 750 l 2
 622 750 625 747 625 744 c 2
 625 631 l 2x1040
 625 628 622 625 619 625 c 2
 506 625 l 2
381 500 m 2x2080
 378 500 375 503 375 506 c 2
 375 619 l 2
 375 622 378 625 381 625 c 2
 494 625 l 2
 497 625 500 622 500 619 c 2
 500 506 l 2
 500 503 497 500 494 500 c 2
 381 500 l 2x2080
131 125 m 2x6a80
 128 125 125 128 125 131 c 2
 125 1119 l 2
 125 1122 128 1125 131 1125 c 2
 244 1125 l 2
 247 1125 250 1122 250 1119 c 2
 250 500 l 1
 369 500 l 2
 372 500 375 497 375 494 c 2
 375 381 l 2
 375 378 372 375 369 375 c 2
 250 375 l 1
 250 131 l 2
 250 128 247 125 244 125 c 2
 131 125 l 2x6a80
256 0 m 2
 253 0 250 3 250 6 c 2
 250 119 l 2
 250 122 253 125 256 125 c 2
 369 125 l 2
 372 125 375 122 375 119 c 2
 375 6 l 2x41
 375 3 372 0 369 0 c 2
 256 0 l 2
631 0 m 2
 628 0 625 3 625 6 c 2
 625 119 l 2
 625 122 628 125 631 125 c 2
 744 125 l 2
 747 125 750 122 750 119 c 2
 750 6 l 2x4020
 750 3 747 0 744 0 c 2
 631 0 l 2
381 -125 m 2x80a0
 378 -125 375 -122 375 -119 c 2
 375 -6 l 2
 375 -3 378 0 381 0 c 2
 619 0 l 2
 622 0 625 -3 625 -6 c 2
 625 -119 l 2
 625 -122 622 -125 619 -125 c 2
 381 -125 l 2x80a0
EndSplineSet
EndChar

StartChar: one
Encoding: 49 49 3
Width: 1000
Flags: MW
HStem: -125 125<129.5 500 131 500 625 869> 875 125<129.5 244 131 244> 1000 125<131 369 244 369 254.5 369 256 369> 1355 20G<506 619 619 620.5>
VStem: 125 125<881 994 879.5 995.5> 250 125<879.5 1006 881 1006 1006 1119 1004.5 1120.5> 500 125<0 1125 1125 1125 1250 1369 0 1370.5>
LayerCount: 2
Fore
SplineSet
381 1125 m 2xba
 378 1125 375 1128 375 1131 c 2
 375 1244 l 2xb6
 375 1247 378 1250 381 1250 c 2
 500 1250 l 1
 500 1369 l 2
 500 1372 503 1375 506 1375 c 2
 619 1375 l 2
 622 1375 625 1372 625 1369 c 2
 625 0 l 1
 869 0 l 2
 872 0 875 -3 875 -6 c 2
 875 -119 l 2
 875 -122 872 -125 869 -125 c 2
 131 -125 l 2
 128 -125 125 -122 125 -119 c 2
 125 -6 l 2
 125 -3 128 0 131 0 c 2
 500 0 l 1
 500 1125 l 1
 381 1125 l 2xba
256 1000 m 2
 253 1000 250 1003 250 1006 c 2
 250 1119 l 2
 250 1122 253 1125 256 1125 c 2
 369 1125 l 2
 372 1125 375 1122 375 1119 c 2
 375 1006 l 2
 375 1003 372 1000 369 1000 c 2
 256 1000 l 2
131 875 m 2xda
 128 875 125 878 125 881 c 2
 125 994 l 2
 125 997 128 1000 131 1000 c 2
 244 1000 l 2
 247 1000 250 997 250 994 c 2
 250 881 l 2
 250 878 247 875 244 875 c 2
 131 875 l 2xda
EndSplineSet
EndChar

StartChar: two
Encoding: 50 50 4
Width: 1000
Flags: MW
HStem: -125 125<129.5 869 250 869 250 869> 250 125<131 369 244 369 254.5 369 256 369> 375 125<256 494 369 494 379.5 494 381 494> 500 125<381 619 494 619 504.5 619 506 619> 625 125<506 744 619 744 629.5 744 631 744> 1000 125<129.5 244 131 244> 1125 125<131 369 244 369 254.5 369 256 369 631 744> 1250 125<256 619 369 619 379.5 619 381 619 381 744>
VStem: 125 125<0 244 0 244 0 245.5 1006 1119> 250 125<0 256 256 369 254.5 370.5 1131 1244> 375 125<254.5 381 256 381 381 494 379.5 495.5> 500 125<379.5 506 381 506 506 619 504.5 620.5> 625 125<504.5 631 506 631 631 744 629.5 745.5 1131 1244> 750 125<756 1119>
LayerCount: 2
Fore
SplineSet
381 1250 m 2x8128
 378 1250 375 1253 375 1256 c 2
 375 1369 l 2
 375 1372 378 1375 381 1375 c 2
 619 1375 l 2
 622 1375 625 1372 625 1369 c 2
 625 1256 l 2
 625 1253 622 1250 619 1250 c 2
 381 1250 l 2x8128
256 1125 m 2x8240
 253 1125 250 1128 250 1131 c 2
 250 1244 l 2
 250 1247 253 1250 256 1250 c 2
 369 1250 l 2
 372 1250 375 1247 375 1244 c 2
 375 1131 l 2
 375 1128 372 1125 369 1125 c 2
 256 1125 l 2x8240
631 1125 m 2
 628 1125 625 1128 625 1131 c 2
 625 1244 l 2
 625 1247 628 1250 631 1250 c 2
 744 1250 l 2
 747 1250 750 1247 750 1244 c 2
 750 1131 l 2x8208
 750 1128 747 1125 744 1125 c 2
 631 1125 l 2
131 1000 m 2x8480
 128 1000 125 1003 125 1006 c 2
 125 1119 l 2
 125 1122 128 1125 131 1125 c 2
 244 1125 l 2
 247 1125 250 1122 250 1119 c 2
 250 1006 l 2
 250 1003 247 1000 244 1000 c 2
 131 1000 l 2x8480
756 750 m 2x8a04
 753 750 750 753 750 756 c 2
 750 1119 l 2
 750 1122 753 1125 756 1125 c 2
 869 1125 l 2
 872 1125 875 1122 875 1119 c 2
 875 756 l 2
 875 753 872 750 869 750 c 2
 756 750 l 2x8a04
631 625 m 2
 628 625 625 628 625 631 c 2
 625 744 l 2
 625 747 628 750 631 750 c 2
 744 750 l 2
 747 750 750 747 750 744 c 2
 750 631 l 2x8808
 750 628 747 625 744 625 c 2
 631 625 l 2
506 500 m 2x9010
 503 500 500 503 500 506 c 2
 500 619 l 2
 500 622 503 625 506 625 c 2
 619 625 l 2
 622 625 625 622 625 619 c 2
 625 506 l 2
 625 503 622 500 619 500 c 2
 506 500 l 2x9010
381 375 m 2xa020
 378 375 375 378 375 381 c 2
 375 494 l 2
 375 497 378 500 381 500 c 2
 494 500 l 2
 497 500 500 497 500 494 c 2
 500 381 l 2
 500 378 497 375 494 375 c 2
 381 375 l 2xa020
256 250 m 2xc040
 253 250 250 253 250 256 c 2
 250 369 l 2
 250 372 253 375 256 375 c 2
 369 375 l 2
 372 375 375 372 375 369 c 2
 375 256 l 2
 375 253 372 250 369 250 c 2
 256 250 l 2xc040
131 -125 m 2
 128 -125 125 -122 125 -119 c 2
 125 244 l 2
 125 247 128 250 131 250 c 2
 244 250 l 2
 247 250 250 247 250 244 c 2
 250 0 l 1
 869 0 l 2
 872 0 875 -3 875 -6 c 2
 875 -119 l 2xc084
 875 -122 872 -125 869 -125 c 2
 131 -125 l 2
EndSplineSet
EndChar

StartChar: three
Encoding: 51 51 5
Width: 1000
Flags: MW
HStem: -125 125<254.5 381 381 619> 0 125<129.5 256 256 369 631 744> 125 125<129.5 244 131 244 131 369> 500 125<504.5 631 631 744> 625 125<504.5 619 506 619 631 744> 750 125<506 744 619 744 629.5 744 631 744> 1000 125<129.5 244 131 244> 1125 125<131 369 244 369 254.5 369 256 369 631 744> 1250 125<256 619 369 619 379.5 619 381 619 381 744>
VStem: 125 125<131 244 1006 1119> 250 125<6 119 1131 1244> 375 250<-119 -6 -120.5 -4.5 -120.5 6 6 119 1131 1244 1256 1369> 500 125<631 744> 625 125<-120.5 6 -119 6 6 119 4.5 120.5 506 619 756 869 1131 1244> 750 125<4.5 131 6 131 131 494 881 1119>
LayerCount: 2
Fore
SplineSet
381 1250 m 2x0090
 378 1250 375 1253 375 1256 c 2
 375 1369 l 2
 375 1372 378 1375 381 1375 c 2
 619 1375 l 2
 622 1375 625 1372 625 1369 c 2
 625 1256 l 2
 625 1253 622 1250 619 1250 c 2
 381 1250 l 2x0090
256 1125 m 2x0120
 253 1125 250 1128 250 1131 c 2
 250 1244 l 2
 250 1247 253 1250 256 1250 c 2
 369 1250 l 2
 372 1250 375 1247 375 1244 c 2
 375 1131 l 2
 375 1128 372 1125 369 1125 c 2
 256 1125 l 2x0120
631 1125 m 2
 628 1125 625 1128 625 1131 c 2
 625 1244 l 2
 625 1247 628 1250 631 1250 c 2
 744 1250 l 2
 747 1250 750 1247 750 1244 c 2
 750 1131 l 2x0104
 750 1128 747 1125 744 1125 c 2
 631 1125 l 2
131 1000 m 2x0240
 128 1000 125 1003 125 1006 c 2
 125 1119 l 2
 125 1122 128 1125 131 1125 c 2
 244 1125 l 2
 247 1125 250 1122 250 1119 c 2
 250 1006 l 2
 250 1003 247 1000 244 1000 c 2
 131 1000 l 2x0240
756 875 m 2x0502
 753 875 750 878 750 881 c 2
 750 1119 l 2
 750 1122 753 1125 756 1125 c 2
 869 1125 l 2
 872 1125 875 1122 875 1119 c 2
 875 881 l 2
 875 878 872 875 869 875 c 2
 756 875 l 2x0502
631 750 m 2
 628 750 625 753 625 756 c 2
 625 869 l 2
 625 872 628 875 631 875 c 2
 744 875 l 2
 747 875 750 872 750 869 c 2
 750 756 l 2x0404
 750 753 747 750 744 750 c 2
 631 750 l 2
506 625 m 2x0808
 503 625 500 628 500 631 c 2
 500 744 l 2
 500 747 503 750 506 750 c 2
 619 750 l 2
 622 750 625 747 625 744 c 2
 625 631 l 2
 625 628 622 625 619 625 c 2
 506 625 l 2x0808
631 500 m 2x1004
 628 500 625 503 625 506 c 2
 625 619 l 2
 625 622 628 625 631 625 c 2
 744 625 l 2
 747 625 750 622 750 619 c 2
 750 506 l 2
 750 503 747 500 744 500 c 2
 631 500 l 2x1004
131 125 m 2x2040
 128 125 125 128 125 131 c 2
 125 244 l 2
 125 247 128 250 131 250 c 2
 244 250 l 2
 247 250 250 247 250 244 c 2
 250 131 l 2
 250 128 247 125 244 125 c 2
 131 125 l 2x2040
756 125 m 2
 753 125 750 128 750 131 c 2
 750 494 l 2
 750 497 753 500 756 500 c 2
 869 500 l 2
 872 500 875 497 875 494 c 2
 875 131 l 2x3002
 875 128 872 125 869 125 c 2
 756 125 l 2
256 0 m 2x4020
 253 0 250 3 250 6 c 2
 250 119 l 2
 250 122 253 125 256 125 c 2
 369 125 l 2
 372 125 375 122 375 119 c 2
 375 6 l 2
 375 3 372 0 369 0 c 2
 256 0 l 2x4020
631 0 m 2
 628 0 625 3 625 6 c 2
 625 119 l 2
 625 122 628 125 631 125 c 2
 744 125 l 2
 747 125 750 122 750 119 c 2
 750 6 l 2x4004
 750 3 747 0 744 0 c 2
 631 0 l 2
381 -125 m 2x8010
 378 -125 375 -122 375 -119 c 2
 375 -6 l 2
 375 -3 378 0 381 0 c 2
 619 0 l 2
 622 0 625 -3 625 -6 c 2
 625 -119 l 2
 625 -122 622 -125 619 -125 c 2
 381 -125 l 2x8010
EndSplineSet
EndChar

StartChar: four
Encoding: 52 52 6
Width: 1000
Flags: MW
HStem: 625 125<129.5 750 250 750 250 750> 875 125<131 369 244 369 254.5 369 256 369> 1000 125<256 494 369 494 379.5 494 381 494> 1125 125<381 619 494 619 504.5 619 506 619> 1250 125<506 869 619 869 629.5 869 631 750>
VStem: 125 125<750 869 750 869 750 870.5> 250 125<750 881 881 994 879.5 995.5> 375 125<879.5 1006 881 1006 1006 1119 1004.5 1120.5> 500 125<1004.5 1131 1006 1131 1131 1244 1129.5 1245.5> 750 125<-119 625 625 625 750 1250 1250 1250>
LayerCount: 2
Fore
SplineSet
631 1250 m 2xccc0
 628 1250 625 1253 625 1256 c 2
 625 1369 l 2
 625 1372 628 1375 631 1375 c 2
 869 1375 l 2
 872 1375 875 1372 875 1369 c 2
 875 -119 l 2
 875 -122 872 -125 869 -125 c 2
 756 -125 l 2
 753 -125 750 -122 750 -119 c 2
 750 625 l 1
 131 625 l 2
 128 625 125 628 125 631 c 2
 125 869 l 2
 125 872 128 875 131 875 c 2
 244 875 l 2
 247 875 250 872 250 869 c 2
 250 750 l 1
 750 750 l 1
 750 1250 l 1
 631 1250 l 2xccc0
506 1125 m 2x90c0
 503 1125 500 1128 500 1131 c 2
 500 1244 l 2
 500 1247 503 1250 506 1250 c 2
 619 1250 l 2
 622 1250 625 1247 625 1244 c 2
 625 1131 l 2
 625 1128 622 1125 619 1125 c 2
 506 1125 l 2x90c0
381 1000 m 2xa140
 378 1000 375 1003 375 1006 c 2
 375 1119 l 2
 375 1122 378 1125 381 1125 c 2
 494 1125 l 2
 497 1125 500 1122 500 1119 c 2
 500 1006 l 2
 500 1003 497 1000 494 1000 c 2
 381 1000 l 2xa140
256 875 m 2xc240
 253 875 250 878 250 881 c 2
 250 994 l 2
 250 997 253 1000 256 1000 c 2
 369 1000 l 2
 372 1000 375 997 375 994 c 2
 375 881 l 2
 375 878 372 875 369 875 c 2
 256 875 l 2xc240
EndSplineSet
EndChar

StartChar: five
Encoding: 53 53 7
Width: 1000
Flags: MW
HStem: -125 125<254.5 381 381 619> 0 125<129.5 256 256 369 631 744> 625 125<631 744> 1250 125<250 869 250 250>
VStem: 125 125<131 369 875 1250> 250 125<6 119> 625 125<-120.5 6 -119 6 6 119 4.5 120.5 631 744> 750 125<4.5 131 6 131 131 619>
LayerCount: 2
Fore
SplineSet
131 750 m 2x3a
 128 750 125 753 125 756 c 2
 125 1369 l 2
 125 1372 128 1375 131 1375 c 2
 869 1375 l 2
 872 1375 875 1372 875 1369 c 2
 875 1256 l 2x39
 875 1253 872 1250 869 1250 c 2
 250 1250 l 1
 250 875 l 1
 619 875 l 2
 622 875 625 872 625 869 c 2
 625 756 l 2
 625 753 622 750 619 750 c 2
 131 750 l 2x3a
631 625 m 2
 628 625 625 628 625 631 c 2
 625 744 l 2
 625 747 628 750 631 750 c 2
 744 750 l 2
 747 750 750 747 750 744 c 2
 750 631 l 2x32
 750 628 747 625 744 625 c 2
 631 625 l 2
131 125 m 2x78
 128 125 125 128 125 131 c 2
 125 369 l 2
 125 372 128 375 131 375 c 2
 244 375 l 2
 247 375 250 372 250 369 c 2
 250 131 l 2
 250 128 247 125 244 125 c 2
 131 125 l 2x78
756 125 m 2
 753 125 750 128 750 131 c 2
 750 619 l 2
 750 622 753 625 756 625 c 2
 869 625 l 2
 872 625 875 622 875 619 c 2
 875 131 l 2x71
 875 128 872 125 869 125 c 2
 756 125 l 2
256 0 m 2
 253 0 250 3 250 6 c 2
 250 119 l 2
 250 122 253 125 256 125 c 2
 369 125 l 2
 372 125 375 122 375 119 c 2
 375 6 l 2x74
 375 3 372 0 369 0 c 2
 256 0 l 2
631 0 m 2
 628 0 625 3 625 6 c 2
 625 119 l 2
 625 122 628 125 631 125 c 2
 744 125 l 2
 747 125 750 122 750 119 c 2
 750 6 l 2x72
 750 3 747 0 744 0 c 2
 631 0 l 2
381 -125 m 2xb6
 378 -125 375 -122 375 -119 c 2
 375 -6 l 2
 375 -3 378 0 381 0 c 2
 619 0 l 2
 622 0 625 -3 625 -6 c 2
 625 -119 l 2
 625 -122 622 -125 619 -125 c 2
 381 -125 l 2xb6
EndSplineSet
EndChar

StartChar: six
Encoding: 54 54 8
Width: 1000
Flags: MW
HStem: -125 125<254.5 381 381 619> 0 125<129.5 256 256 369 631 744> 500 125<250 369 250 369 631 744> 625 125<250 619 369 619 379.5 619 381 619 381 744> 1000 125<756 869> 1125 125<131 369 244 369 254.5 369 256 369 631 744> 1250 125<256 619 369 619 379.5 619 381 619 381 744>
VStem: 125 125<131 500 625 1119> 250 125<6 119 631 744 744 745.5 1131 1244> 375 250<-119 -6 -120.5 -4.5 -120.5 6 6 119 506 619 631 744 1131 1244 1256 1369> 625 125<-120.5 6 -119 6 6 119 4.5 120.5 506 619 1131 1244> 750 125<4.5 131 6 131 131 494 1006 1119>
LayerCount: 2
Fore
SplineSet
381 1250 m 2x0240
 378 1250 375 1253 375 1256 c 2
 375 1369 l 2
 375 1372 378 1375 381 1375 c 2
 619 1375 l 2
 622 1375 625 1372 625 1369 c 2
 625 1256 l 2
 625 1253 622 1250 619 1250 c 2
 381 1250 l 2x0240
256 1125 m 2x0480
 253 1125 250 1128 250 1131 c 2
 250 1244 l 2
 250 1247 253 1250 256 1250 c 2
 369 1250 l 2
 372 1250 375 1247 375 1244 c 2
 375 1131 l 2
 375 1128 372 1125 369 1125 c 2
 256 1125 l 2x0480
631 1125 m 2
 628 1125 625 1128 625 1131 c 2
 625 1244 l 2
 625 1247 628 1250 631 1250 c 2
 744 1250 l 2
 747 1250 750 1247 750 1244 c 2
 750 1131 l 2x0420
 750 1128 747 1125 744 1125 c 2
 631 1125 l 2
756 1000 m 2x0810
 753 1000 750 1003 750 1006 c 2
 750 1119 l 2
 750 1122 753 1125 756 1125 c 2
 869 1125 l 2
 872 1125 875 1122 875 1119 c 2
 875 1006 l 2
 875 1003 872 1000 869 1000 c 2
 756 1000 l 2x0810
381 625 m 2x1040
 378 625 375 628 375 631 c 2
 375 744 l 2
 375 747 378 750 381 750 c 2
 619 750 l 2
 622 750 625 747 625 744 c 2
 625 631 l 2
 625 628 622 625 619 625 c 2
 381 625 l 2x1040
631 500 m 2x2020
 628 500 625 503 625 506 c 2
 625 619 l 2
 625 622 628 625 631 625 c 2
 744 625 l 2
 747 625 750 622 750 619 c 2
 750 506 l 2
 750 503 747 500 744 500 c 2
 631 500 l 2x2020
131 125 m 2x6540
 128 125 125 128 125 131 c 2
 125 1119 l 2
 125 1122 128 1125 131 1125 c 2
 244 1125 l 2
 247 1125 250 1122 250 1119 c 2
 250 625 l 1
 369 625 l 2
 372 625 375 622 375 619 c 2
 375 506 l 2
 375 503 372 500 369 500 c 2
 250 500 l 1
 250 131 l 2
 250 128 247 125 244 125 c 2
 131 125 l 2x6540
756 125 m 2
 753 125 750 128 750 131 c 2
 750 494 l 2
 750 497 753 500 756 500 c 2
 869 500 l 2
 872 500 875 497 875 494 c 2
 875 131 l 2x6010
 875 128 872 125 869 125 c 2
 756 125 l 2
256 0 m 2
 253 0 250 3 250 6 c 2
 250 119 l 2
 250 122 253 125 256 125 c 2
 369 125 l 2
 372 125 375 122 375 119 c 2
 375 6 l 2x4080
 375 3 372 0 369 0 c 2
 256 0 l 2
631 0 m 2
 628 0 625 3 625 6 c 2
 625 119 l 2
 625 122 628 125 631 125 c 2
 744 125 l 2
 747 125 750 122 750 119 c 2
 750 6 l 2x4020
 750 3 747 0 744 0 c 2
 631 0 l 2
381 -125 m 2x8040
 378 -125 375 -122 375 -119 c 2
 375 -6 l 2
 375 -3 378 0 381 0 c 2
 619 0 l 2
 622 0 625 -3 625 -6 c 2
 625 -119 l 2
 625 -122 622 -125 619 -125 c 2
 381 -125 l 2x8040
EndSplineSet
EndChar

StartChar: seven
Encoding: 55 55 9
Width: 1000
Flags: MW
HStem: 1250 125<129.5 869 131 750>
VStem: 125 125<-119 119> 250 125<-119 131 131 369> 375 125<131 381 381 619> 500 125<381 631 631 869> 625 125<631 881 881 1119> 750 125<881 1131 1131 1250 1250 1250>
LayerCount: 2
Fore
SplineSet
131 1250 m 2xc2
 128 1250 125 1253 125 1256 c 2
 125 1369 l 2
 125 1372 128 1375 131 1375 c 2
 869 1375 l 2
 872 1375 875 1372 875 1369 c 2
 875 1131 l 2
 875 1128 872 1125 869 1125 c 2
 756 1125 l 2
 753 1125 750 1128 750 1131 c 2
 750 1250 l 1
 131 1250 l 2xc2
631 875 m 2
 628 875 625 878 625 881 c 2
 625 1119 l 2
 625 1122 628 1125 631 1125 c 2
 744 1125 l 2
 747 1125 750 1122 750 1119 c 2
 750 881 l 2x84
 750 878 747 875 744 875 c 2
 631 875 l 2
506 625 m 2
 503 625 500 628 500 631 c 2
 500 869 l 2
 500 872 503 875 506 875 c 2
 619 875 l 2
 622 875 625 872 625 869 c 2
 625 631 l 2x88
 625 628 622 625 619 625 c 2
 506 625 l 2
381 375 m 2
 378 375 375 378 375 381 c 2
 375 619 l 2
 375 622 378 625 381 625 c 2
 494 625 l 2
 497 625 500 622 500 619 c 2
 500 381 l 2x90
 500 378 497 375 494 375 c 2
 381 375 l 2
256 125 m 2
 253 125 250 128 250 131 c 2
 250 369 l 2
 250 372 253 375 256 375 c 2
 369 375 l 2
 372 375 375 372 375 369 c 2
 375 131 l 2xa0
 375 128 372 125 369 125 c 2
 256 125 l 2
131 -125 m 2
 128 -125 125 -122 125 -119 c 2
 125 119 l 2
 125 122 128 125 131 125 c 2
 244 125 l 2
 247 125 250 122 250 119 c 2
 250 -119 l 2xc0
 250 -122 247 -125 244 -125 c 2
 131 -125 l 2
EndSplineSet
EndChar

StartChar: eight
Encoding: 56 56 10
Width: 1000
Flags: MW
HStem: -125 125<254.5 381 381 619> 0 125<129.5 256 256 369 631 744> 500 125<131 369 244 369 254.5 369 256 369 631 744> 625 125<256 369 254.5 370.5 254.5 381 381 619 631 744> 750 125<129.5 256 256 369 631 744> 875 250<129.5 244 131 244 256 369 131 370.5 631 744 756 869> 1125 125<131 369 244 369 254.5 369 256 369 631 744> 1250 125<256 619 369 619 379.5 619 381 619 381 744>
VStem: 125 125<131 494 881 1119> 250 125<6 119 506 619 756 869 1131 1244> 375 250<-119 -6 -120.5 -4.5 -120.5 6 6 119 506 619 631 744 756 869 1131 1244 1256 1369> 625 125<-120.5 6 -119 6 6 119 4.5 120.5 506 619 756 869 1131 1244> 750 125<4.5 131 6 131 131 494 881 1119>
LayerCount: 2
Fore
SplineSet
381 1250 m 2x0120
 378 1250 375 1253 375 1256 c 2
 375 1369 l 2
 375 1372 378 1375 381 1375 c 2
 619 1375 l 2
 622 1375 625 1372 625 1369 c 2
 625 1256 l 2
 625 1253 622 1250 619 1250 c 2
 381 1250 l 2x0120
256 1125 m 2x0240
 253 1125 250 1128 250 1131 c 2
 250 1244 l 2
 250 1247 253 1250 256 1250 c 2
 369 1250 l 2
 372 1250 375 1247 375 1244 c 2
 375 1131 l 2
 375 1128 372 1125 369 1125 c 2
 256 1125 l 2x0240
631 1125 m 2
 628 1125 625 1128 625 1131 c 2
 625 1244 l 2
 625 1247 628 1250 631 1250 c 2
 744 1250 l 2
 747 1250 750 1247 750 1244 c 2
 750 1131 l 2x0210
 750 1128 747 1125 744 1125 c 2
 631 1125 l 2
131 875 m 2x0480
 128 875 125 878 125 881 c 2
 125 1119 l 2
 125 1122 128 1125 131 1125 c 2
 244 1125 l 2
 247 1125 250 1122 250 1119 c 2
 250 881 l 2
 250 878 247 875 244 875 c 2
 131 875 l 2x0480
756 875 m 2
 753 875 750 878 750 881 c 2
 750 1119 l 2
 750 1122 753 1125 756 1125 c 2
 869 1125 l 2
 872 1125 875 1122 875 1119 c 2
 875 881 l 2x0408
 875 878 872 875 869 875 c 2
 756 875 l 2
256 750 m 2x0840
 253 750 250 753 250 756 c 2
 250 869 l 2
 250 872 253 875 256 875 c 2
 369 875 l 2
 372 875 375 872 375 869 c 2
 375 756 l 2
 375 753 372 750 369 750 c 2
 256 750 l 2x0840
631 750 m 2
 628 750 625 753 625 756 c 2
 625 869 l 2
 625 872 628 875 631 875 c 2
 744 875 l 2
 747 875 750 872 750 869 c 2
 750 756 l 2x0810
 750 753 747 750 744 750 c 2
 631 750 l 2
381 625 m 2x1020
 378 625 375 628 375 631 c 2
 375 744 l 2
 375 747 378 750 381 750 c 2
 619 750 l 2
 622 750 625 747 625 744 c 2
 625 631 l 2
 625 628 622 625 619 625 c 2
 381 625 l 2x1020
256 500 m 2x2040
 253 500 250 503 250 506 c 2
 250 619 l 2
 250 622 253 625 256 625 c 2
 369 625 l 2
 372 625 375 622 375 619 c 2
 375 506 l 2
 375 503 372 500 369 500 c 2
 256 500 l 2x2040
631 500 m 2
 628 500 625 503 625 506 c 2
 625 619 l 2
 625 622 628 625 631 625 c 2
 744 625 l 2
 747 625 750 622 750 619 c 2
 750 506 l 2x2010
 750 503 747 500 744 500 c 2
 631 500 l 2
131 125 m 2x6080
 128 125 125 128 125 131 c 2
 125 494 l 2
 125 497 128 500 131 500 c 2
 244 500 l 2
 247 500 250 497 250 494 c 2
 250 131 l 2
 250 128 247 125 244 125 c 2
 131 125 l 2x6080
756 125 m 2
 753 125 750 128 750 131 c 2
 750 494 l 2
 750 497 753 500 756 500 c 2
 869 500 l 2
 872 500 875 497 875 494 c 2
 875 131 l 2x6008
 875 128 872 125 869 125 c 2
 756 125 l 2
256 0 m 2
 253 0 250 3 250 6 c 2
 250 119 l 2
 250 122 253 125 256 125 c 2
 369 125 l 2
 372 125 375 122 375 119 c 2
 375 6 l 2x4040
 375 3 372 0 369 0 c 2
 256 0 l 2
631 0 m 2
 628 0 625 3 625 6 c 2
 625 119 l 2
 625 122 628 125 631 125 c 2
 744 125 l 2
 747 125 750 122 750 119 c 2
 750 6 l 2x4010
 750 3 747 0 744 0 c 2
 631 0 l 2
381 -125 m 2x8020
 378 -125 375 -122 375 -119 c 2
 375 -6 l 2
 375 -3 378 0 381 0 c 2
 619 0 l 2
 622 0 625 -3 625 -6 c 2
 625 -119 l 2
 625 -122 622 -125 619 -125 c 2
 381 -125 l 2x8020
EndSplineSet
EndChar

StartChar: nine
Encoding: 57 57 11
Width: 1000
Flags: MW
HStem: -125 125<254.5 381 381 619> 0 125<129.5 256 256 369 631 744> 125 125<129.5 244 131 244 131 369> 625 125<254.5 381 381 619> 750 125<129.5 256 256 369 631 750> 1125 125<131 369 244 369 254.5 369 256 369 631 744> 1250 125<256 619 369 619 379.5 619 381 619 381 744>
VStem: 125 125<131 244 881 1119> 250 125<6 119 756 869 1131 1244> 375 250<-119 -6 -120.5 -4.5 -120.5 6 6 119 631 744 756 869 1131 1244 1256 1369> 625 125<-120.5 6 -119 6 6 119 4.5 120.5 629.5 631 631 744 1131 1244> 750 125<4.5 131 6 131 131 750 750 750 875 1119>
LayerCount: 2
Fore
SplineSet
381 1250 m 2x0240
 378 1250 375 1253 375 1256 c 2
 375 1369 l 2
 375 1372 378 1375 381 1375 c 2
 619 1375 l 2
 622 1375 625 1372 625 1369 c 2
 625 1256 l 2
 625 1253 622 1250 619 1250 c 2
 381 1250 l 2x0240
256 1125 m 2x0480
 253 1125 250 1128 250 1131 c 2
 250 1244 l 2
 250 1247 253 1250 256 1250 c 2
 369 1250 l 2
 372 1250 375 1247 375 1244 c 2
 375 1131 l 2
 375 1128 372 1125 369 1125 c 2
 256 1125 l 2x0480
631 1125 m 2
 628 1125 625 1128 625 1131 c 2
 625 1244 l 2
 625 1247 628 1250 631 1250 c 2
 744 1250 l 2
 747 1250 750 1247 750 1244 c 2
 750 1131 l 2x0420
 750 1128 747 1125 744 1125 c 2
 631 1125 l 2
131 875 m 2x0d
 128 875 125 878 125 881 c 2
 125 1119 l 2
 125 1122 128 1125 131 1125 c 2
 244 1125 l 2
 247 1125 250 1122 250 1119 c 2
 250 881 l 2
 250 878 247 875 244 875 c 2
 131 875 l 2x0d
256 750 m 2
 253 750 250 753 250 756 c 2
 250 869 l 2
 250 872 253 875 256 875 c 2
 369 875 l 2
 372 875 375 872 375 869 c 2
 375 756 l 2x0880
 375 753 372 750 369 750 c 2
 256 750 l 2
631 750 m 2
 628 750 625 753 625 756 c 2
 625 869 l 2x2c20
 625 872 628 875 631 875 c 2
 750 875 l 1
 750 1119 l 2
 750 1122 753 1125 756 1125 c 2
 869 1125 l 2
 872 1125 875 1122 875 1119 c 2
 875 131 l 2
 875 128 872 125 869 125 c 2
 756 125 l 2
 753 125 750 128 750 131 c 2
 750 750 l 1x2c10
 631 750 l 2
381 625 m 2x1040
 378 625 375 628 375 631 c 2
 375 744 l 2
 375 747 378 750 381 750 c 2
 619 750 l 2
 622 750 625 747 625 744 c 2
 625 631 l 2
 625 628 622 625 619 625 c 2
 381 625 l 2x1040
131 125 m 2x21
 128 125 125 128 125 131 c 2
 125 244 l 2
 125 247 128 250 131 250 c 2
 244 250 l 2
 247 250 250 247 250 244 c 2
 250 131 l 2
 250 128 247 125 244 125 c 2
 131 125 l 2x21
256 0 m 2x4080
 253 0 250 3 250 6 c 2
 250 119 l 2
 250 122 253 125 256 125 c 2
 369 125 l 2
 372 125 375 122 375 119 c 2
 375 6 l 2
 375 3 372 0 369 0 c 2
 256 0 l 2x4080
631 0 m 2
 628 0 625 3 625 6 c 2
 625 119 l 2
 625 122 628 125 631 125 c 2
 744 125 l 2
 747 125 750 122 750 119 c 2
 750 6 l 2x4020
 750 3 747 0 744 0 c 2
 631 0 l 2
381 -125 m 2x8040
 378 -125 375 -122 375 -119 c 2
 375 -6 l 2
 375 -3 378 0 381 0 c 2
 619 0 l 2
 622 0 625 -3 625 -6 c 2
 625 -119 l 2
 625 -122 622 -125 619 -125 c 2
 381 -125 l 2x8040
EndSplineSet
EndChar

StartChar: A
Encoding: 65 65 12
Width: 1000
Flags: MW
HStem: 625 125<250 750 250 750> 1125 125<131 369 244 369 254.5 369 256 369 631 744> 1250 125<256 619 369 619 379.5 619 381 619 381 744>
VStem: 125 125<-119 625 750 1119> 250 125<750 1131 1131 1244 1129.5 1245.5> 625 125<1131 1244> 750 125<-119 625 625 625 750 1119>
LayerCount: 2
Fore
SplineSet
381 1250 m 2xac
 378 1250 375 1253 375 1256 c 2
 375 1369 l 2
 375 1372 378 1375 381 1375 c 2
 619 1375 l 2
 622 1375 625 1372 625 1369 c 2
 625 1256 l 2
 625 1253 622 1250 619 1250 c 2
 381 1250 l 2xac
256 1125 m 2xc8
 253 1125 250 1128 250 1131 c 2
 250 1244 l 2
 250 1247 253 1250 256 1250 c 2
 369 1250 l 2
 372 1250 375 1247 375 1244 c 2
 375 1131 l 2
 375 1128 372 1125 369 1125 c 2
 256 1125 l 2xc8
631 1125 m 2
 628 1125 625 1128 625 1131 c 2
 625 1244 l 2
 625 1247 628 1250 631 1250 c 2
 744 1250 l 2
 747 1250 750 1247 750 1244 c 2
 750 1131 l 2xc4
 750 1128 747 1125 744 1125 c 2
 631 1125 l 2
131 -125 m 2
 128 -125 125 -122 125 -119 c 2
 125 1119 l 2
 125 1122 128 1125 131 1125 c 2
 244 1125 l 2
 247 1125 250 1122 250 1119 c 2
 250 750 l 1
 750 750 l 1
 750 1119 l 2
 750 1122 753 1125 756 1125 c 2
 869 1125 l 2
 872 1125 875 1122 875 1119 c 2
 875 -119 l 2
 875 -122 872 -125 869 -125 c 2
 756 -125 l 2
 753 -125 750 -122 750 -119 c 2
 750 625 l 1
 250 625 l 1
 250 -119 l 2xd2
 250 -122 247 -125 244 -125 c 2
 131 -125 l 2
EndSplineSet
EndChar

StartChar: B
Encoding: 66 66 13
Width: 1000
Flags: MW
HStem: 0 125<250 744 619 744 629.5 744 631 744> 500 125<250 631 631 744> 750 125<250 744 619 744 629.5 744 631 744> 1125 125<250 631 631 744> 1355 20G<131 619 619 620.5> 1355 20G<131 619 619 620.5>
VStem: 125 125<0 625 750 1250> 625 125<-120.5 6 -119 6 6 119 4.5 120.5 506 619 756 869 1131 1244> 750 125<4.5 131 6 131 131 494 881 1119>
LayerCount: 2
Fore
SplineSet
631 1125 m 2xf3
 628 1125 625 1128 625 1131 c 2
 625 1244 l 2
 625 1247 628 1250 631 1250 c 2
 744 1250 l 2
 747 1250 750 1247 750 1244 c 2
 750 1131 l 2
 750 1128 747 1125 744 1125 c 2
 631 1125 l 2xf3
756 875 m 2
 753 875 750 878 750 881 c 2
 750 1119 l 2
 750 1122 753 1125 756 1125 c 2
 869 1125 l 2
 872 1125 875 1122 875 1119 c 2
 875 881 l 2xf280
 875 878 872 875 869 875 c 2
 756 875 l 2
631 750 m 2
 628 750 625 753 625 756 c 2
 625 869 l 2
 625 872 628 875 631 875 c 2
 744 875 l 2
 747 875 750 872 750 869 c 2
 750 756 l 2xf3
 750 753 747 750 744 750 c 2
 631 750 l 2
631 500 m 2
 628 500 625 503 625 506 c 2
 625 619 l 2
 625 622 628 625 631 625 c 2
 744 625 l 2
 747 625 750 622 750 619 c 2
 750 506 l 2
 750 503 747 500 744 500 c 2
 631 500 l 2
756 125 m 2
 753 125 750 128 750 131 c 2
 750 494 l 2
 750 497 753 500 756 500 c 2
 869 500 l 2
 872 500 875 497 875 494 c 2
 875 131 l 2xf280
 875 128 872 125 869 125 c 2
 756 125 l 2
631 0 m 2
 628 0 625 3 625 6 c 2
 625 119 l 2
 625 122 628 125 631 125 c 2
 744 125 l 2
 747 125 750 122 750 119 c 2
 750 6 l 2xf3
 750 3 747 0 744 0 c 2
 631 0 l 2
131 -125 m 2
 128 -125 125 -122 125 -119 c 2
 125 1369 l 2
 125 1372 128 1375 131 1375 c 2
 619 1375 l 2xfb
 622 1375 625 1372 625 1369 c 2
 625 1256 l 2
 625 1253 622 1250 619 1250 c 2
 250 1250 l 1
 250 750 l 1
 619 750 l 2
 622 750 625 747 625 744 c 2
 625 631 l 2
 625 628 622 625 619 625 c 2
 250 625 l 1
 250 0 l 1
 619 0 l 2
 622 0 625 -3 625 -6 c 2
 625 -119 l 2
 625 -122 622 -125 619 -125 c 2
 131 -125 l 2
EndSplineSet
EndChar

StartChar: C
Encoding: 67 67 14
Width: 1000
Flags: MW
HStem: -125 125<379.5 506 506 869> 0 125<254.5 381 381 494> 125 125<129.5 256 256 369> 1000 125<131 369 244 369 254.5 369 256 369> 1125 125<256 494 369 494 379.5 494 381 494> 1250 125<381 869 494 869 504.5 869 506 869>
VStem: 125 125<256 994> 250 125<131 244 1006 1119> 375 125<6 119 1131 1244>
LayerCount: 2
Fore
SplineSet
506 1250 m 2x0480
 503 1250 500 1253 500 1256 c 2
 500 1369 l 2
 500 1372 503 1375 506 1375 c 2
 869 1375 l 2
 872 1375 875 1372 875 1369 c 2
 875 1256 l 2
 875 1253 872 1250 869 1250 c 2
 506 1250 l 2x0480
381 1125 m 2x0880
 378 1125 375 1128 375 1131 c 2
 375 1244 l 2
 375 1247 378 1250 381 1250 c 2
 494 1250 l 2
 497 1250 500 1247 500 1244 c 2
 500 1131 l 2
 500 1128 497 1125 494 1125 c 2
 381 1125 l 2x0880
256 1000 m 2x11
 253 1000 250 1003 250 1006 c 2
 250 1119 l 2
 250 1122 253 1125 256 1125 c 2
 369 1125 l 2
 372 1125 375 1122 375 1119 c 2
 375 1006 l 2
 375 1003 372 1000 369 1000 c 2
 256 1000 l 2x11
131 250 m 2x32
 128 250 125 253 125 256 c 2
 125 994 l 2
 125 997 128 1000 131 1000 c 2
 244 1000 l 2
 247 1000 250 997 250 994 c 2
 250 256 l 2
 250 253 247 250 244 250 c 2
 131 250 l 2x32
256 125 m 2
 253 125 250 128 250 131 c 2
 250 244 l 2
 250 247 253 250 256 250 c 2
 369 250 l 2
 372 250 375 247 375 244 c 2
 375 131 l 2x21
 375 128 372 125 369 125 c 2
 256 125 l 2
381 0 m 2x4080
 378 0 375 3 375 6 c 2
 375 119 l 2
 375 122 378 125 381 125 c 2
 494 125 l 2
 497 125 500 122 500 119 c 2
 500 6 l 2
 500 3 497 0 494 0 c 2
 381 0 l 2x4080
506 -125 m 2x8080
 503 -125 500 -122 500 -119 c 2
 500 -6 l 2
 500 -3 503 0 506 0 c 2
 869 0 l 2
 872 0 875 -3 875 -6 c 2
 875 -119 l 2
 875 -122 872 -125 869 -125 c 2
 506 -125 l 2x8080
EndSplineSet
EndChar

StartChar: D
Encoding: 68 68 15
Width: 1000
Flags: MW
HStem: 0 125<250 619 494 619 504.5 619 506 619> 125 125<506 744 619 744 629.5 744 631 744> 1000 125<504.5 631 631 744> 1125 125<250 506 506 619> 1355 20G<131 494 494 495.5> 1355 20G<131 494 494 495.5>
VStem: 125 125<0 1250 0 1369 0 1370.5> 500 125<-120.5 6 -119 6 6 119 4.5 120.5 1131 1244> 625 125<4.5 131 6 131 131 244 129.5 245.5 1006 1119> 750 125<129.5 256 131 256 256 994>
LayerCount: 2
Fore
SplineSet
506 1125 m 2x13
 503 1125 500 1128 500 1131 c 2
 500 1244 l 2
 500 1247 503 1250 506 1250 c 2
 619 1250 l 2
 622 1250 625 1247 625 1244 c 2
 625 1131 l 2
 625 1128 622 1125 619 1125 c 2
 506 1125 l 2x13
631 1000 m 2x2280
 628 1000 625 1003 625 1006 c 2
 625 1119 l 2
 625 1122 628 1125 631 1125 c 2
 744 1125 l 2
 747 1125 750 1122 750 1119 c 2
 750 1006 l 2
 750 1003 747 1000 744 1000 c 2
 631 1000 l 2x2280
756 250 m 2x6240
 753 250 750 253 750 256 c 2
 750 994 l 2
 750 997 753 1000 756 1000 c 2
 869 1000 l 2
 872 1000 875 997 875 994 c 2
 875 256 l 2
 875 253 872 250 869 250 c 2
 756 250 l 2x6240
631 125 m 2
 628 125 625 128 625 131 c 2
 625 244 l 2
 625 247 628 250 631 250 c 2
 744 250 l 2
 747 250 750 247 750 244 c 2
 750 131 l 2x4280
 750 128 747 125 744 125 c 2
 631 125 l 2
506 0 m 2x83
 503 0 500 3 500 6 c 2
 500 119 l 2
 500 122 503 125 506 125 c 2
 619 125 l 2
 622 125 625 122 625 119 c 2
 625 6 l 2
 625 3 622 0 619 0 c 2
 506 0 l 2x83
131 -125 m 2
 128 -125 125 -122 125 -119 c 2
 125 1369 l 2
 125 1372 128 1375 131 1375 c 2
 494 1375 l 2
 497 1375 500 1372 500 1369 c 2
 500 1256 l 2
 500 1253 497 1250 494 1250 c 2
 250 1250 l 1x9b
 250 0 l 1
 494 0 l 2
 497 0 500 -3 500 -6 c 2
 500 -119 l 2
 500 -122 497 -125 494 -125 c 2
 131 -125 l 2
EndSplineSet
EndChar

StartChar: E
Encoding: 69 69 16
Width: 1000
Flags: MW
HStem: -125 125<129.5 869 250 869 250 869> 625 125<250 619 250 619> 1250 125<250 869 250 250>
VStem: 125 125<0 625 750 1250>
LayerCount: 2
Fore
SplineSet
131 -125 m 2
 128 -125 125 -122 125 -119 c 2
 125 1369 l 2
 125 1372 128 1375 131 1375 c 2
 869 1375 l 2
 872 1375 875 1372 875 1369 c 2
 875 1256 l 2
 875 1253 872 1250 869 1250 c 2
 250 1250 l 1
 250 750 l 1
 619 750 l 2
 622 750 625 747 625 744 c 2
 625 631 l 2
 625 628 622 625 619 625 c 2
 250 625 l 1
 250 0 l 1
 869 0 l 2
 872 0 875 -3 875 -6 c 2
 875 -119 l 2
 875 -122 872 -125 869 -125 c 2
 131 -125 l 2
EndSplineSet
EndChar

StartChar: F
Encoding: 70 70 17
Width: 1000
Flags: MW
HStem: 625 125<250 619 250 619> 1250 125<250 869 250 250>
VStem: 125 125<-119 625 750 1250>
LayerCount: 2
Fore
SplineSet
131 -125 m 2
 128 -125 125 -122 125 -119 c 2
 125 1369 l 2
 125 1372 128 1375 131 1375 c 2
 869 1375 l 2
 872 1375 875 1372 875 1369 c 2
 875 1256 l 2
 875 1253 872 1250 869 1250 c 2
 250 1250 l 1
 250 750 l 1
 619 750 l 2
 622 750 625 747 625 744 c 2
 625 631 l 2
 625 628 622 625 619 625 c 2
 250 625 l 1
 250 -119 l 2
 250 -122 247 -125 244 -125 c 2
 131 -125 l 2
EndSplineSet
EndChar

StartChar: G
Encoding: 71 71 18
Width: 1000
Flags: MW
HStem: -125 125<254.5 381 381 619> 0 125<129.5 256 256 369 631 744> 500 125<504.5 869 506 750> 1000 125<756 869> 1125 125<131 369 244 369 254.5 369 256 369 631 744> 1250 125<256 619 369 619 379.5 619 381 619 381 744>
VStem: 125 125<131 1119> 250 125<6 119 1131 1244> 375 250<-119 -6 -120.5 -4.5 -120.5 6 6 119 1131 1244 1256 1369> 625 125<-120.5 6 -119 6 6 119 4.5 120.5 1131 1244> 750 125<4.5 131 6 131 131 500 500 500 1006 1119>
LayerCount: 2
Fore
SplineSet
381 1250 m 2x2480
 378 1250 375 1253 375 1256 c 2
 375 1369 l 2
 375 1372 378 1375 381 1375 c 2
 619 1375 l 2
 622 1375 625 1372 625 1369 c 2
 625 1256 l 2
 625 1253 622 1250 619 1250 c 2
 381 1250 l 2x2480
256 1125 m 2x29
 253 1125 250 1128 250 1131 c 2
 250 1244 l 2
 250 1247 253 1250 256 1250 c 2
 369 1250 l 2
 372 1250 375 1247 375 1244 c 2
 375 1131 l 2
 375 1128 372 1125 369 1125 c 2
 256 1125 l 2x29
631 1125 m 2
 628 1125 625 1128 625 1131 c 2
 625 1244 l 2
 625 1247 628 1250 631 1250 c 2
 744 1250 l 2
 747 1250 750 1247 750 1244 c 2
 750 1131 l 2x2840
 750 1128 747 1125 744 1125 c 2
 631 1125 l 2
756 1000 m 2x3020
 753 1000 750 1003 750 1006 c 2
 750 1119 l 2
 750 1122 753 1125 756 1125 c 2
 869 1125 l 2
 872 1125 875 1122 875 1119 c 2
 875 1006 l 2
 875 1003 872 1000 869 1000 c 2
 756 1000 l 2x3020
506 500 m 2
 503 500 500 503 500 506 c 2
 500 619 l 2
 500 622 503 625 506 625 c 2
 869 625 l 2
 872 625 875 622 875 619 c 2
 875 131 l 2
 875 128 872 125 869 125 c 2
 756 125 l 2x6020
 753 125 750 128 750 131 c 2
 750 500 l 1
 506 500 l 2
131 125 m 2
 128 125 125 128 125 131 c 2
 125 1119 l 2
 125 1122 128 1125 131 1125 c 2
 244 1125 l 2
 247 1125 250 1122 250 1119 c 2
 250 131 l 2x6a
 250 128 247 125 244 125 c 2
 131 125 l 2
256 0 m 2
 253 0 250 3 250 6 c 2
 250 119 l 2
 250 122 253 125 256 125 c 2
 369 125 l 2
 372 125 375 122 375 119 c 2
 375 6 l 2x61
 375 3 372 0 369 0 c 2
 256 0 l 2
631 0 m 2
 628 0 625 3 625 6 c 2
 625 119 l 2
 625 122 628 125 631 125 c 2
 744 125 l 2
 747 125 750 122 750 119 c 2
 750 6 l 2x6040
 750 3 747 0 744 0 c 2
 631 0 l 2
381 -125 m 2xa080
 378 -125 375 -122 375 -119 c 2
 375 -6 l 2
 375 -3 378 0 381 0 c 2
 619 0 l 2
 622 0 625 -3 625 -6 c 2
 625 -119 l 2
 625 -122 622 -125 619 -125 c 2
 381 -125 l 2xa080
EndSplineSet
EndChar

StartChar: H
Encoding: 72 72 19
Width: 1000
Flags: MW
HStem: -125 21G<129.5 131 131 244 754.5 756 756 869> 625 125<250 750 250 750> 1355 20G<131 244 244 245.5 756 869 869 870.5> 1355 20G<131 244 244 245.5 756 869 869 870.5>
VStem: 125 125<-119 625 750 1369> 750 125<-119 625 625 625 750 1369>
LayerCount: 2
Fore
SplineSet
131 -125 m 2xec
 128 -125 125 -122 125 -119 c 2
 125 1369 l 2
 125 1372 128 1375 131 1375 c 2
 244 1375 l 2
 247 1375 250 1372 250 1369 c 2
 250 750 l 1
 750 750 l 1
 750 1369 l 2
 750 1372 753 1375 756 1375 c 2
 869 1375 l 2
 872 1375 875 1372 875 1369 c 2
 875 -119 l 2
 875 -122 872 -125 869 -125 c 2
 756 -125 l 2
 753 -125 750 -122 750 -119 c 2
 750 625 l 1
 250 625 l 1
 250 -119 l 2
 250 -122 247 -125 244 -125 c 2
 131 -125 l 2xec
EndSplineSet
EndChar

StartChar: I
Encoding: 73 73 20
Width: 1000
Flags: MW
HStem: -125 125<129.5 375 131 375 500 869> 1250 125<129.5 869 131 375 500 500 500 869>
VStem: 375 125<0 1250 0 1250>
LayerCount: 2
Fore
SplineSet
131 1250 m 2
 128 1250 125 1253 125 1256 c 2
 125 1369 l 2
 125 1372 128 1375 131 1375 c 2
 869 1375 l 2
 872 1375 875 1372 875 1369 c 2
 875 1256 l 2
 875 1253 872 1250 869 1250 c 2
 500 1250 l 1
 500 0 l 1
 869 0 l 2
 872 0 875 -3 875 -6 c 2
 875 -119 l 2
 875 -122 872 -125 869 -125 c 2
 131 -125 l 2
 128 -125 125 -122 125 -119 c 2
 125 -6 l 2
 125 -3 128 0 131 0 c 2
 375 0 l 1
 375 1250 l 1
 131 1250 l 2
EndSplineSet
EndChar

StartChar: J
Encoding: 74 74 21
Width: 1000
Flags: MW
HStem: -125 125<129.5 256 256 744> 1250 125<504.5 869 506 750>
VStem: 125 125<6 244> 750 125<-120.5 6 -119 6 6 1250 1250 1250>
LayerCount: 2
Fore
SplineSet
506 1250 m 2
 503 1250 500 1253 500 1256 c 2
 500 1369 l 2
 500 1372 503 1375 506 1375 c 2
 869 1375 l 2
 872 1375 875 1372 875 1369 c 2
 875 6 l 2
 875 3 872 0 869 0 c 2
 756 0 l 2
 753 0 750 3 750 6 c 2
 750 1250 l 1
 506 1250 l 2
131 0 m 2
 128 0 125 3 125 6 c 2
 125 244 l 2
 125 247 128 250 131 250 c 2
 244 250 l 2
 247 250 250 247 250 244 c 2
 250 6 l 2
 250 3 247 0 244 0 c 2
 131 0 l 2
256 -125 m 2
 253 -125 250 -122 250 -119 c 2
 250 -6 l 2
 250 -3 253 0 256 0 c 2
 744 0 l 2
 747 0 750 -3 750 -6 c 2
 750 -119 l 2
 750 -122 747 -125 744 -125 c 2
 256 -125 l 2
EndSplineSet
EndChar

StartChar: K
Encoding: 75 75 22
Width: 1000
Flags: MW
HStem: -125 125<629.5 756 756 869> 500 250<250 494 250 494 506 619 250 620.5> 1250 125<756 869>
VStem: 125 125<-119 500 750 1369> 500 125<256 494 756 994> 625 125<6 244 1006 1244> 750 125<-119 -6 -120.5 -4.5 -120.5 6 1256 1369>
CounterMasks: 1 e0
LayerCount: 2
Fore
SplineSet
756 1250 m 2xf2
 753 1250 750 1253 750 1256 c 2
 750 1369 l 2
 750 1372 753 1375 756 1375 c 2
 869 1375 l 2
 872 1375 875 1372 875 1369 c 2
 875 1256 l 2
 875 1253 872 1250 869 1250 c 2
 756 1250 l 2xf2
631 1000 m 2
 628 1000 625 1003 625 1006 c 2
 625 1244 l 2
 625 1247 628 1250 631 1250 c 2
 744 1250 l 2
 747 1250 750 1247 750 1244 c 2
 750 1006 l 2xf4
 750 1003 747 1000 744 1000 c 2
 631 1000 l 2
506 750 m 2
 503 750 500 753 500 756 c 2
 500 994 l 2
 500 997 503 1000 506 1000 c 2
 619 1000 l 2
 622 1000 625 997 625 994 c 2
 625 756 l 2xf8
 625 753 622 750 619 750 c 2
 506 750 l 2
506 250 m 2
 503 250 500 253 500 256 c 2
 500 494 l 2
 500 497 503 500 506 500 c 2
 619 500 l 2
 622 500 625 497 625 494 c 2
 625 256 l 2
 625 253 622 250 619 250 c 2
 506 250 l 2
631 0 m 2
 628 0 625 3 625 6 c 2
 625 244 l 2
 625 247 628 250 631 250 c 2
 744 250 l 2
 747 250 750 247 750 244 c 2
 750 6 l 2xf4
 750 3 747 0 744 0 c 2
 631 0 l 2
131 -125 m 2
 128 -125 125 -122 125 -119 c 2
 125 1369 l 2
 125 1372 128 1375 131 1375 c 2
 244 1375 l 2
 247 1375 250 1372 250 1369 c 2
 250 750 l 1
 494 750 l 2
 497 750 500 747 500 744 c 2
 500 506 l 2xf8
 500 503 497 500 494 500 c 2
 250 500 l 1
 250 -119 l 2
 250 -122 247 -125 244 -125 c 2
 131 -125 l 2
756 -125 m 2
 753 -125 750 -122 750 -119 c 2
 750 -6 l 2
 750 -3 753 0 756 0 c 2
 869 0 l 2
 872 0 875 -3 875 -6 c 2
 875 -119 l 2xf2
 875 -122 872 -125 869 -125 c 2
 756 -125 l 2
EndSplineSet
EndChar

StartChar: L
Encoding: 76 76 23
Width: 1000
Flags: MW
HStem: -125 125<129.5 869 250 869 250 869> 1355 20G<131 244 244 245.5> 1355 20G<131 244 244 245.5>
VStem: 125 125<0 1369 0 1369 0 1370.5>
LayerCount: 2
Fore
SplineSet
131 -125 m 2xd0
 128 -125 125 -122 125 -119 c 2
 125 1369 l 2
 125 1372 128 1375 131 1375 c 2
 244 1375 l 2
 247 1375 250 1372 250 1369 c 2
 250 0 l 1
 869 0 l 2
 872 0 875 -3 875 -6 c 2
 875 -119 l 2
 875 -122 872 -125 869 -125 c 2
 131 -125 l 2xd0
EndSplineSet
EndChar

StartChar: M
Encoding: 77 77 24
Width: 1000
Flags: MW
HStem: -125 21G<129.5 131 131 244 754.5 756 756 869> 750 125<379.5 506 506 619> 1355 20G<131 369 369 370.5 631 869 869 870.5> 1355 20G<131 369 369 370.5 631 869 869 870.5>
VStem: 125 125<-119 1125> 125 250<881 1119 1119 1120.5 1129.5 1131 1131 1369> 375 125<881 1119> 500 125<756 869 754.5 870.5 754.5 881 881 1119> 625 250<754.5 756 756 869 881 1369> 750 125<-119 875 875 875>
LayerCount: 2
Fore
SplineSet
381 875 m 2xc2
 378 875 375 878 375 881 c 2
 375 1119 l 2
 375 1122 378 1125 381 1125 c 2
 494 1125 l 2
 497 1125 500 1122 500 1119 c 2
 500 881 l 2
 500 878 497 875 494 875 c 2
 381 875 l 2xc2
631 875 m 2
 628 875 625 878 625 881 c 2
 625 1369 l 2
 625 1372 628 1375 631 1375 c 2
 869 1375 l 2
 872 1375 875 1372 875 1369 c 2xe080
 875 -119 l 2
 875 -122 872 -125 869 -125 c 2
 756 -125 l 2
 753 -125 750 -122 750 -119 c 2
 750 875 l 1xe040
 631 875 l 2
506 750 m 2
 503 750 500 753 500 756 c 2
 500 869 l 2
 500 872 503 875 506 875 c 2
 619 875 l 2
 622 875 625 872 625 869 c 2
 625 756 l 2xc1
 625 753 622 750 619 750 c 2
 506 750 l 2
131 -125 m 2
 128 -125 125 -122 125 -119 c 2xe8
 125 1369 l 2
 125 1372 128 1375 131 1375 c 2
 369 1375 l 2
 372 1375 375 1372 375 1369 c 2
 375 1131 l 2xe4
 375 1128 372 1125 369 1125 c 2
 250 1125 l 1
 250 -119 l 2xe8
 250 -122 247 -125 244 -125 c 2
 131 -125 l 2
EndSplineSet
EndChar

StartChar: N
Encoding: 78 78 25
Width: 1000
Flags: MW
HStem: -125 21G<129.5 131 131 244 754.5 756 756 869> 1355 20G<131 369 369 370.5 756 869 869 870.5> 1355 20G<131 369 369 370.5 756 869 869 870.5>
VStem: 125 125<-119 1125> 125 250<881 1119 1119 1120.5 1129.5 1131 1131 1369> 375 125<881 1119> 500 125<631 869> 625 250<381 619 619 620.5 629.5 631 631 869> 750 125<-119 375 375 375 625 1369>
LayerCount: 2
Fore
SplineSet
381 875 m 2x84
 378 875 375 878 375 881 c 2
 375 1119 l 2
 375 1122 378 1125 381 1125 c 2
 494 1125 l 2
 497 1125 500 1122 500 1119 c 2
 500 881 l 2
 500 878 497 875 494 875 c 2
 381 875 l 2x84
506 625 m 2
 503 625 500 628 500 631 c 2
 500 869 l 2
 500 872 503 875 506 875 c 2
 619 875 l 2
 622 875 625 872 625 869 c 2
 625 631 l 2x82
 625 628 622 625 619 625 c 2
 506 625 l 2
631 375 m 2
 628 375 625 378 625 381 c 2
 625 619 l 2xc1
 625 622 628 625 631 625 c 2
 750 625 l 1
 750 1369 l 2
 750 1372 753 1375 756 1375 c 2
 869 1375 l 2
 872 1375 875 1372 875 1369 c 2
 875 -119 l 2
 875 -122 872 -125 869 -125 c 2
 756 -125 l 2
 753 -125 750 -122 750 -119 c 2
 750 375 l 1xc080
 631 375 l 2
131 -125 m 2
 128 -125 125 -122 125 -119 c 2xd0
 125 1369 l 2
 125 1372 128 1375 131 1375 c 2
 369 1375 l 2
 372 1375 375 1372 375 1369 c 2
 375 1131 l 2xc8
 375 1128 372 1125 369 1125 c 2
 250 1125 l 1
 250 -119 l 2xd0
 250 -122 247 -125 244 -125 c 2
 131 -125 l 2
EndSplineSet
EndChar

StartChar: O
Encoding: 79 79 26
Width: 1000
Flags: MW
HStem: -125 125<254.5 381 381 619> 0 125<129.5 256 256 369 631 744> 1125 125<131 369 244 369 254.5 369 256 369 631 744> 1250 125<256 619 369 619 379.5 619 381 619 381 744>
VStem: 125 125<131 1119> 250 125<6 119 1131 1244> 375 250<-119 -6 -120.5 -4.5 -120.5 6 6 119 1131 1244 1256 1369> 625 125<-120.5 6 -119 6 6 119 4.5 120.5 1131 1244> 750 125<4.5 131 6 131 131 1119>
LayerCount: 2
Fore
SplineSet
381 1250 m 2x12
 378 1250 375 1253 375 1256 c 2
 375 1369 l 2
 375 1372 378 1375 381 1375 c 2
 619 1375 l 2
 622 1375 625 1372 625 1369 c 2
 625 1256 l 2
 625 1253 622 1250 619 1250 c 2
 381 1250 l 2x12
256 1125 m 2x24
 253 1125 250 1128 250 1131 c 2
 250 1244 l 2
 250 1247 253 1250 256 1250 c 2
 369 1250 l 2
 372 1250 375 1247 375 1244 c 2
 375 1131 l 2
 375 1128 372 1125 369 1125 c 2
 256 1125 l 2x24
631 1125 m 2
 628 1125 625 1128 625 1131 c 2
 625 1244 l 2
 625 1247 628 1250 631 1250 c 2
 744 1250 l 2
 747 1250 750 1247 750 1244 c 2
 750 1131 l 2x21
 750 1128 747 1125 744 1125 c 2
 631 1125 l 2
131 125 m 2x68
 128 125 125 128 125 131 c 2
 125 1119 l 2
 125 1122 128 1125 131 1125 c 2
 244 1125 l 2
 247 1125 250 1122 250 1119 c 2
 250 131 l 2
 250 128 247 125 244 125 c 2
 131 125 l 2x68
756 125 m 2
 753 125 750 128 750 131 c 2
 750 1119 l 2
 750 1122 753 1125 756 1125 c 2
 869 1125 l 2
 872 1125 875 1122 875 1119 c 2
 875 131 l 2x6080
 875 128 872 125 869 125 c 2
 756 125 l 2
256 0 m 2
 253 0 250 3 250 6 c 2
 250 119 l 2
 250 122 253 125 256 125 c 2
 369 125 l 2
 372 125 375 122 375 119 c 2
 375 6 l 2x44
 375 3 372 0 369 0 c 2
 256 0 l 2
631 0 m 2
 628 0 625 3 625 6 c 2
 625 119 l 2
 625 122 628 125 631 125 c 2
 744 125 l 2
 747 125 750 122 750 119 c 2
 750 6 l 2x41
 750 3 747 0 744 0 c 2
 631 0 l 2
381 -125 m 2x82
 378 -125 375 -122 375 -119 c 2
 375 -6 l 2
 375 -3 378 0 381 0 c 2
 619 0 l 2
 622 0 625 -3 625 -6 c 2
 625 -119 l 2
 625 -122 622 -125 619 -125 c 2
 381 -125 l 2x82
EndSplineSet
EndChar

StartChar: P
Encoding: 80 80 27
Width: 1000
Flags: MW
HStem: -125 21G<129.5 131 131 244> 750 125<250 744 619 744 629.5 744 631 744> 1125 125<250 631 631 744> 1355 20G<131 619 619 620.5> 1355 20G<131 619 619 620.5>
VStem: 125 125<-119 625 750 1250> 625 125<629.5 756 631 756 756 869 754.5 870.5 1131 1244> 750 125<754.5 881 756 881 881 1119>
LayerCount: 2
Fore
SplineSet
631 1125 m 2xe6
 628 1125 625 1128 625 1131 c 2
 625 1244 l 2
 625 1247 628 1250 631 1250 c 2
 744 1250 l 2
 747 1250 750 1247 750 1244 c 2
 750 1131 l 2
 750 1128 747 1125 744 1125 c 2
 631 1125 l 2xe6
756 875 m 2
 753 875 750 878 750 881 c 2
 750 1119 l 2
 750 1122 753 1125 756 1125 c 2
 869 1125 l 2
 872 1125 875 1122 875 1119 c 2
 875 881 l 2xe5
 875 878 872 875 869 875 c 2
 756 875 l 2
631 750 m 2
 628 750 625 753 625 756 c 2
 625 869 l 2
 625 872 628 875 631 875 c 2
 744 875 l 2
 747 875 750 872 750 869 c 2
 750 756 l 2xe6
 750 753 747 750 744 750 c 2
 631 750 l 2
131 -125 m 2
 128 -125 125 -122 125 -119 c 2
 125 1369 l 2
 125 1372 128 1375 131 1375 c 2
 619 1375 l 2xf6
 622 1375 625 1372 625 1369 c 2
 625 1256 l 2
 625 1253 622 1250 619 1250 c 2
 250 1250 l 1
 250 750 l 1
 619 750 l 2
 622 750 625 747 625 744 c 2
 625 631 l 2
 625 628 622 625 619 625 c 2
 250 625 l 1
 250 -119 l 2
 250 -122 247 -125 244 -125 c 2
 131 -125 l 2
EndSplineSet
EndChar

StartChar: Q
Encoding: 81 81 28
Width: 1000
Flags: MW
HStem: -125 125<254.5 381 381 619 756 869> 0 125<129.5 256 256 369 504.5 506 506 619 631 744 756 869> 125 125<256 381 369 381 379.5 506 506 619> 250 125<379.5 494 381 494 381 619> 1125 125<131 369 244 369 254.5 369 256 369 631 744> 1250 125<256 619 369 619 379.5 619 381 619 381 744>
VStem: 125 125<131 1119> 250 125<6 119 256 369 369 370.5 1131 1244> 375 125<6 244 256 369> 500 125<131 244> 625 125<-120.5 -6 -119 -6 6 119 131 244 1131 1244> 750 125<-119 -6 -120.5 -4.5 -120.5 6 131 1119>
LayerCount: 2
Fore
SplineSet
381 1250 m 2x04a0
 378 1250 375 1253 375 1256 c 2
 375 1369 l 2
 375 1372 378 1375 381 1375 c 2
 619 1375 l 2
 622 1375 625 1372 625 1369 c 2
 625 1256 l 2
 625 1253 622 1250 619 1250 c 2
 381 1250 l 2x04a0
256 1125 m 2x09
 253 1125 250 1128 250 1131 c 2
 250 1244 l 2
 250 1247 253 1250 256 1250 c 2
 369 1250 l 2
 372 1250 375 1247 375 1244 c 2
 375 1131 l 2
 375 1128 372 1125 369 1125 c 2
 256 1125 l 2x09
631 1125 m 2
 628 1125 625 1128 625 1131 c 2
 625 1244 l 2
 625 1247 628 1250 631 1250 c 2
 744 1250 l 2
 747 1250 750 1247 750 1244 c 2
 750 1131 l 2x0820
 750 1128 747 1125 744 1125 c 2
 631 1125 l 2
381 250 m 2x1080
 378 250 375 253 375 256 c 2
 375 369 l 2
 375 372 378 375 381 375 c 2
 494 375 l 2
 497 375 500 372 500 369 c 2
 500 256 l 2
 500 253 497 250 494 250 c 2
 381 250 l 2x1080
131 125 m 2x2a
 128 125 125 128 125 131 c 2
 125 1119 l 2
 125 1122 128 1125 131 1125 c 2
 244 1125 l 2
 247 1125 250 1122 250 1119 c 2
 250 131 l 2
 250 128 247 125 244 125 c 2
 131 125 l 2x2a
506 125 m 2
 503 125 500 128 500 131 c 2
 500 244 l 2
 500 247 503 250 506 250 c 2
 619 250 l 2
 622 250 625 247 625 244 c 2
 625 131 l 2x2040
 625 128 622 125 619 125 c 2
 506 125 l 2
756 125 m 2
 753 125 750 128 750 131 c 2
 750 1119 l 2
 750 1122 753 1125 756 1125 c 2
 869 1125 l 2
 872 1125 875 1122 875 1119 c 2
 875 131 l 2x2810
 875 128 872 125 869 125 c 2
 756 125 l 2
256 0 m 2x41
 253 0 250 3 250 6 c 2
 250 119 l 2
 250 122 253 125 256 125 c 2
 369 125 l 2
 372 125 375 122 375 119 c 2
 375 6 l 2
 375 3 372 0 369 0 c 2
 256 0 l 2x41
631 0 m 2
 628 0 625 3 625 6 c 2
 625 119 l 2
 625 122 628 125 631 125 c 2
 744 125 l 2
 747 125 750 122 750 119 c 2
 750 6 l 2x4020
 750 3 747 0 744 0 c 2
 631 0 l 2
381 -125 m 2x80a0
 378 -125 375 -122 375 -119 c 2
 375 -6 l 2
 375 -3 378 0 381 0 c 2
 619 0 l 2
 622 0 625 -3 625 -6 c 2
 625 -119 l 2
 625 -122 622 -125 619 -125 c 2
 381 -125 l 2x80a0
756 -125 m 2
 753 -125 750 -122 750 -119 c 2
 750 -6 l 2
 750 -3 753 0 756 0 c 2
 869 0 l 2
 872 0 875 -3 875 -6 c 2
 875 -119 l 2x8010
 875 -122 872 -125 869 -125 c 2
 756 -125 l 2
EndSplineSet
EndChar

StartChar: R
Encoding: 82 82 29
Width: 1000
Flags: MW
HStem: -125 21G<129.5 131 131 244 754.5 756 756 869> 500 125<250 631 631 744> 750 125<250 744 619 744 629.5 744 631 744> 1125 125<250 631 631 744> 1355 20G<131 619 619 620.5> 1355 20G<131 619 619 620.5>
VStem: 125 125<-119 625 750 1250> 625 125<506 619 756 869 1131 1244> 750 125<-119 494 881 1119>
LayerCount: 2
Fore
SplineSet
631 1125 m 2xf3
 628 1125 625 1128 625 1131 c 2
 625 1244 l 2
 625 1247 628 1250 631 1250 c 2
 744 1250 l 2
 747 1250 750 1247 750 1244 c 2
 750 1131 l 2
 750 1128 747 1125 744 1125 c 2
 631 1125 l 2xf3
756 875 m 2
 753 875 750 878 750 881 c 2
 750 1119 l 2
 750 1122 753 1125 756 1125 c 2
 869 1125 l 2
 872 1125 875 1122 875 1119 c 2
 875 881 l 2xf280
 875 878 872 875 869 875 c 2
 756 875 l 2
631 750 m 2
 628 750 625 753 625 756 c 2
 625 869 l 2
 625 872 628 875 631 875 c 2
 744 875 l 2
 747 875 750 872 750 869 c 2
 750 756 l 2xf3
 750 753 747 750 744 750 c 2
 631 750 l 2
631 500 m 2
 628 500 625 503 625 506 c 2
 625 619 l 2
 625 622 628 625 631 625 c 2
 744 625 l 2
 747 625 750 622 750 619 c 2
 750 506 l 2
 750 503 747 500 744 500 c 2
 631 500 l 2
131 -125 m 2
 128 -125 125 -122 125 -119 c 2
 125 1369 l 2
 125 1372 128 1375 131 1375 c 2
 619 1375 l 2xfb
 622 1375 625 1372 625 1369 c 2
 625 1256 l 2
 625 1253 622 1250 619 1250 c 2
 250 1250 l 1
 250 750 l 1
 619 750 l 2
 622 750 625 747 625 744 c 2
 625 631 l 2
 625 628 622 625 619 625 c 2
 250 625 l 1
 250 -119 l 2
 250 -122 247 -125 244 -125 c 2
 131 -125 l 2
756 -125 m 2
 753 -125 750 -122 750 -119 c 2
 750 494 l 2
 750 497 753 500 756 500 c 2
 869 500 l 2
 872 500 875 497 875 494 c 2
 875 -119 l 2xf280
 875 -122 872 -125 869 -125 c 2
 756 -125 l 2
EndSplineSet
EndChar

StartChar: S
Encoding: 83 83 30
Width: 1000
Flags: MW
HStem: -125 125<129.5 256 256 744> 500 125<506 744> 625 125<129.5 256 256 494> 1250 125<131 744 244 744 254.5 744 256 744 256 869>
VStem: 125 125<6 244 756 1244> 750 125<-120.5 6 -119 6 6 494 1006 1244>
LayerCount: 2
Fore
SplineSet
256 1250 m 2x9c
 253 1250 250 1253 250 1256 c 2
 250 1369 l 2
 250 1372 253 1375 256 1375 c 2
 744 1375 l 2
 747 1375 750 1372 750 1369 c 2
 750 1256 l 2
 750 1253 747 1250 744 1250 c 2
 256 1250 l 2x9c
756 1000 m 2
 753 1000 750 1003 750 1006 c 2
 750 1244 l 2
 750 1247 753 1250 756 1250 c 2
 869 1250 l 2
 872 1250 875 1247 875 1244 c 2
 875 1006 l 2
 875 1003 872 1000 869 1000 c 2
 756 1000 l 2
131 750 m 2xbc
 128 750 125 753 125 756 c 2
 125 1244 l 2
 125 1247 128 1250 131 1250 c 2
 244 1250 l 2
 247 1250 250 1247 250 1244 c 2
 250 756 l 2
 250 753 247 750 244 750 c 2
 131 750 l 2xbc
256 625 m 2
 253 625 250 628 250 631 c 2
 250 744 l 2
 250 747 253 750 256 750 c 2
 494 750 l 2
 497 750 500 747 500 744 c 2
 500 631 l 2
 500 628 497 625 494 625 c 2
 256 625 l 2
506 500 m 2xdc
 503 500 500 503 500 506 c 2
 500 619 l 2
 500 622 503 625 506 625 c 2
 744 625 l 2
 747 625 750 622 750 619 c 2
 750 506 l 2
 750 503 747 500 744 500 c 2
 506 500 l 2xdc
131 0 m 2
 128 0 125 3 125 6 c 2
 125 244 l 2
 125 247 128 250 131 250 c 2
 244 250 l 2
 247 250 250 247 250 244 c 2
 250 6 l 2
 250 3 247 0 244 0 c 2
 131 0 l 2
756 0 m 2
 753 0 750 3 750 6 c 2
 750 494 l 2
 750 497 753 500 756 500 c 2
 869 500 l 2
 872 500 875 497 875 494 c 2
 875 6 l 2
 875 3 872 0 869 0 c 2
 756 0 l 2
256 -125 m 2
 253 -125 250 -122 250 -119 c 2
 250 -6 l 2
 250 -3 253 0 256 0 c 2
 744 0 l 2
 747 0 750 -3 750 -6 c 2
 750 -119 l 2
 750 -122 747 -125 744 -125 c 2
 256 -125 l 2
EndSplineSet
EndChar

StartChar: T
Encoding: 84 84 31
Width: 1000
Flags: MW
HStem: -125 21G<379.5 381 381 494> -125 21G<379.5 381 381 494> 1250 125<129.5 869 131 375 500 500 500 869>
VStem: 375 125<-119 1250>
LayerCount: 2
Fore
SplineSet
131 1250 m 2xb0
 128 1250 125 1253 125 1256 c 2
 125 1369 l 2
 125 1372 128 1375 131 1375 c 2
 869 1375 l 2
 872 1375 875 1372 875 1369 c 2
 875 1256 l 2
 875 1253 872 1250 869 1250 c 2
 500 1250 l 1
 500 -119 l 2
 500 -122 497 -125 494 -125 c 2
 381 -125 l 2
 378 -125 375 -122 375 -119 c 2
 375 1250 l 1
 131 1250 l 2xb0
EndSplineSet
EndChar

StartChar: U
Encoding: 85 85 32
Width: 1000
Flags: MW
HStem: -125 125<254.5 381 381 619> 0 125<129.5 256 256 369 631 744> 1355 20G<131 244 244 245.5 756 869 869 870.5> 1355 20G<131 244 244 245.5 756 869 869 870.5>
VStem: 125 125<131 1369> 250 125<6 119> 625 125<-120.5 6 -119 6 6 119 4.5 120.5> 750 125<4.5 131 6 131 131 1369>
LayerCount: 2
Fore
SplineSet
131 125 m 2x68
 128 125 125 128 125 131 c 2
 125 1369 l 2
 125 1372 128 1375 131 1375 c 2
 244 1375 l 2
 247 1375 250 1372 250 1369 c 2
 250 131 l 2
 250 128 247 125 244 125 c 2
 131 125 l 2x68
756 125 m 2
 753 125 750 128 750 131 c 2
 750 1369 l 2
 750 1372 753 1375 756 1375 c 2
 869 1375 l 2
 872 1375 875 1372 875 1369 c 2
 875 131 l 2x61
 875 128 872 125 869 125 c 2
 756 125 l 2
256 0 m 2
 253 0 250 3 250 6 c 2
 250 119 l 2
 250 122 253 125 256 125 c 2
 369 125 l 2
 372 125 375 122 375 119 c 2
 375 6 l 2x44
 375 3 372 0 369 0 c 2
 256 0 l 2
631 0 m 2
 628 0 625 3 625 6 c 2
 625 119 l 2
 625 122 628 125 631 125 c 2
 744 125 l 2
 747 125 750 122 750 119 c 2
 750 6 l 2x42
 750 3 747 0 744 0 c 2
 631 0 l 2
381 -125 m 2x86
 378 -125 375 -122 375 -119 c 2
 375 -6 l 2
 375 -3 378 0 381 0 c 2
 619 0 l 2
 622 0 625 -3 625 -6 c 2
 625 -119 l 2
 625 -122 622 -125 619 -125 c 2
 381 -125 l 2x86
EndSplineSet
EndChar

StartChar: V
Encoding: 86 86 33
Width: 1000
Flags: MW
HStem: -125 250<254.5 381 381 619> 125 125<129.5 256 256 369 631 744> 1355 20G<131 244 244 245.5 756 869 869 870.5> 1355 20G<131 244 244 245.5 756 869 869 870.5>
VStem: 125 125<256 1369> 250 125<131 244> 375 250<-119 119 -120.5 120.5 -120.5 131 131 244> 625 125<-119 131 131 244 129.5 245.5> 750 125<129.5 256 131 256 256 1369>
LayerCount: 2
Fore
SplineSet
131 250 m 2x68
 128 250 125 253 125 256 c 2
 125 1369 l 2
 125 1372 128 1375 131 1375 c 2
 244 1375 l 2
 247 1375 250 1372 250 1369 c 2
 250 256 l 2
 250 253 247 250 244 250 c 2
 131 250 l 2x68
756 250 m 2
 753 250 750 253 750 256 c 2
 750 1369 l 2
 750 1372 753 1375 756 1375 c 2
 869 1375 l 2
 872 1375 875 1372 875 1369 c 2
 875 256 l 2x6080
 875 253 872 250 869 250 c 2
 756 250 l 2
256 125 m 2
 253 125 250 128 250 131 c 2
 250 244 l 2
 250 247 253 250 256 250 c 2
 369 250 l 2
 372 250 375 247 375 244 c 2
 375 131 l 2x44
 375 128 372 125 369 125 c 2
 256 125 l 2
631 125 m 2
 628 125 625 128 625 131 c 2
 625 244 l 2
 625 247 628 250 631 250 c 2
 744 250 l 2
 747 250 750 247 750 244 c 2
 750 131 l 2x41
 750 128 747 125 744 125 c 2
 631 125 l 2
381 -125 m 2x82
 378 -125 375 -122 375 -119 c 2
 375 119 l 2
 375 122 378 125 381 125 c 2
 619 125 l 2
 622 125 625 122 625 119 c 2
 625 -119 l 2
 625 -122 622 -125 619 -125 c 2
 381 -125 l 2x82
EndSplineSet
EndChar

StartChar: W
Encoding: 87 87 34
Width: 1000
Flags: MW
HStem: -125 250<131 494 379.5 494 381 494 381 631 631 750> 125 125<381 619 494 619 504.5 619 506 619 506 750> 1355 20G<131 244 244 245.5 756 869 869 870.5> 1355 20G<131 244 244 245.5 756 869 869 870.5>
VStem: 125 125<-119 1369> 375 125<-119 119> 500 125<-120.5 119 -119 119 131 244> 750 125<125 1369>
LayerCount: 2
Fore
SplineSet
506 125 m 2x4b
 503 125 500 128 500 131 c 2
 500 244 l 2
 500 247 503 250 506 250 c 2
 619 250 l 2
 622 250 625 247 625 244 c 2
 625 131 l 2
 625 128 622 125 619 125 c 2
 506 125 l 2x4b
131 -125 m 2xa9
 128 -125 125 -122 125 -119 c 2
 125 1369 l 2
 125 1372 128 1375 131 1375 c 2
 244 1375 l 2
 247 1375 250 1372 250 1369 c 2
 250 -119 l 2
 250 -122 247 -125 244 -125 c 2
 131 -125 l 2xa9
381 -125 m 2
 378 -125 375 -122 375 -119 c 2
 375 119 l 2
 375 122 378 125 381 125 c 2
 494 125 l 2
 497 125 500 122 500 119 c 2
 500 -119 l 2x8d
 500 -122 497 -125 494 -125 c 2
 381 -125 l 2
631 -125 m 2
 628 -125 625 -122 625 -119 c 2
 625 119 l 2
 625 122 628 125 631 125 c 2
 750 125 l 1
 750 1369 l 2
 750 1372 753 1375 756 1375 c 2
 869 1375 l 2xab
 872 1375 875 1372 875 1369 c 2
 875 -119 l 2
 875 -122 872 -125 869 -125 c 2
 631 -125 l 2
EndSplineSet
EndChar

StartChar: X
Encoding: 88 88 35
Width: 1000
Flags: MW
HStem: -125 21G<129.5 131 131 244 754.5 756 756 869> -125 21G<129.5 131 131 244 754.5 756 756 869> 250 250<131 369 244 369 254.5 369 256 369 631 744> 500 250<256 369 254.5 370.5 254.5 381 381 619 631 744> 750 250<129.5 256 256 369 631 744> 1355 20G<131 244 244 245.5 756 869 869 870.5> 1355 20G<131 244 244 245.5 756 869 869 870.5>
VStem: 125 125<-119 244 1006 1369> 250 125<-119 256 256 494 756 994> 375 250<254.5 494 256 494 506 744 756 994> 625 125<256 494 756 994> 750 125<-119 244 1006 1369>
LayerCount: 2
Fore
SplineSet
131 1000 m 2x0d
 128 1000 125 1003 125 1006 c 2
 125 1369 l 2
 125 1372 128 1375 131 1375 c 2
 244 1375 l 2
 247 1375 250 1372 250 1369 c 2
 250 1006 l 2
 250 1003 247 1000 244 1000 c 2
 131 1000 l 2x0d
756 1000 m 2
 753 1000 750 1003 750 1006 c 2
 750 1369 l 2
 750 1372 753 1375 756 1375 c 2
 869 1375 l 2
 872 1375 875 1372 875 1369 c 2
 875 1006 l 2x0c10
 875 1003 872 1000 869 1000 c 2
 756 1000 l 2
256 750 m 2
 253 750 250 753 250 756 c 2
 250 994 l 2
 250 997 253 1000 256 1000 c 2
 369 1000 l 2
 372 1000 375 997 375 994 c 2
 375 756 l 2x0880
 375 753 372 750 369 750 c 2
 256 750 l 2
631 750 m 2
 628 750 625 753 625 756 c 2
 625 994 l 2
 625 997 628 1000 631 1000 c 2
 744 1000 l 2
 747 1000 750 997 750 994 c 2
 750 756 l 2x0820
 750 753 747 750 744 750 c 2
 631 750 l 2
381 500 m 2x1040
 378 500 375 503 375 506 c 2
 375 744 l 2
 375 747 378 750 381 750 c 2
 619 750 l 2
 622 750 625 747 625 744 c 2
 625 506 l 2
 625 503 622 500 619 500 c 2
 381 500 l 2x1040
256 250 m 2x2080
 253 250 250 253 250 256 c 2
 250 494 l 2
 250 497 253 500 256 500 c 2
 369 500 l 2
 372 500 375 497 375 494 c 2
 375 256 l 2
 375 253 372 250 369 250 c 2
 256 250 l 2x2080
631 250 m 2
 628 250 625 253 625 256 c 2
 625 494 l 2
 625 497 628 500 631 500 c 2
 744 500 l 2
 747 500 750 497 750 494 c 2
 750 256 l 2x2020
 750 253 747 250 744 250 c 2
 631 250 l 2
131 -125 m 2xa1
 128 -125 125 -122 125 -119 c 2
 125 244 l 2
 125 247 128 250 131 250 c 2
 244 250 l 2
 247 250 250 247 250 244 c 2
 250 -119 l 2
 250 -122 247 -125 244 -125 c 2
 131 -125 l 2xa1
756 -125 m 2
 753 -125 750 -122 750 -119 c 2
 750 244 l 2
 750 247 753 250 756 250 c 2
 869 250 l 2
 872 250 875 247 875 244 c 2
 875 -119 l 2xa010
 875 -122 872 -125 869 -125 c 2
 756 -125 l 2
EndSplineSet
EndChar

StartChar: Y
Encoding: 89 89 36
Width: 1000
Flags: MW
HStem: -125 21G<379.5 381 381 494> -125 21G<379.5 381 381 494> 625 125<129.5 256 256 369 506 744> 1355 20G<131 244 244 245.5 756 869 869 870.5> 1355 20G<131 244 244 245.5 756 869 869 870.5>
VStem: 125 125<756 1369> 250 125<631 744> 375 125<-119 619 631 744> 750 125<629.5 756 631 756 756 1369>
LayerCount: 2
Fore
SplineSet
131 750 m 2x3480
 128 750 125 753 125 756 c 2
 125 1369 l 2
 125 1372 128 1375 131 1375 c 2
 244 1375 l 2
 247 1375 250 1372 250 1369 c 2
 250 756 l 2
 250 753 247 750 244 750 c 2
 131 750 l 2x3480
756 750 m 2
 753 750 750 753 750 756 c 2
 750 1369 l 2
 750 1372 753 1375 756 1375 c 2
 869 1375 l 2
 872 1375 875 1372 875 1369 c 2
 875 756 l 2
 875 753 872 750 869 750 c 2
 756 750 l 2
256 625 m 2
 253 625 250 628 250 631 c 2
 250 744 l 2
 250 747 253 750 256 750 c 2
 369 750 l 2
 372 750 375 747 375 744 c 2
 375 631 l 2x2280
 375 628 372 625 369 625 c 2
 256 625 l 2
506 625 m 2
 503 625 500 628 500 631 c 2
 500 744 l 2x2180
 500 747 503 750 506 750 c 2
 744 750 l 2
 747 750 750 747 750 744 c 2
 750 631 l 2
 750 628 747 625 744 625 c 2
 506 625 l 2
381 -125 m 2xa180
 378 -125 375 -122 375 -119 c 2
 375 619 l 2
 375 622 378 625 381 625 c 2
 494 625 l 2
 497 625 500 622 500 619 c 2
 500 -119 l 2
 500 -122 497 -125 494 -125 c 2
 381 -125 l 2xa180
EndSplineSet
EndChar

StartChar: Z
Encoding: 90 90 37
Width: 1000
Flags: MW
HStem: -125 125<129.5 869 250 869 250 869> 1250 125<129.5 869 131 750>
VStem: 125 125<0 119 0 119 0 120.5> 250 125<0 131 131 369> 375 125<131 381 381 619> 500 125<381 631 631 869> 625 125<631 881 881 1119> 750 125<1131 1250 1250 1250>
LayerCount: 2
Fore
SplineSet
131 1250 m 2xe1
 128 1250 125 1253 125 1256 c 2
 125 1369 l 2
 125 1372 128 1375 131 1375 c 2
 869 1375 l 2
 872 1375 875 1372 875 1369 c 2
 875 1131 l 2
 875 1128 872 1125 869 1125 c 2
 756 1125 l 2
 753 1125 750 1128 750 1131 c 2
 750 1250 l 1
 131 1250 l 2xe1
631 875 m 2
 628 875 625 878 625 881 c 2
 625 1119 l 2
 625 1122 628 1125 631 1125 c 2
 744 1125 l 2
 747 1125 750 1122 750 1119 c 2
 750 881 l 2xc2
 750 878 747 875 744 875 c 2
 631 875 l 2
506 625 m 2
 503 625 500 628 500 631 c 2
 500 869 l 2
 500 872 503 875 506 875 c 2
 619 875 l 2
 622 875 625 872 625 869 c 2
 625 631 l 2xc4
 625 628 622 625 619 625 c 2
 506 625 l 2
381 375 m 2
 378 375 375 378 375 381 c 2
 375 619 l 2
 375 622 378 625 381 625 c 2
 494 625 l 2
 497 625 500 622 500 619 c 2
 500 381 l 2xc8
 500 378 497 375 494 375 c 2
 381 375 l 2
256 125 m 2
 253 125 250 128 250 131 c 2
 250 369 l 2
 250 372 253 375 256 375 c 2
 369 375 l 2
 372 375 375 372 375 369 c 2
 375 131 l 2xd0
 375 128 372 125 369 125 c 2
 256 125 l 2
131 -125 m 2
 128 -125 125 -122 125 -119 c 2
 125 119 l 2
 125 122 128 125 131 125 c 2
 244 125 l 2
 247 125 250 122 250 119 c 2
 250 0 l 1
 869 0 l 2
 872 0 875 -3 875 -6 c 2
 875 -119 l 2xe1
 875 -122 872 -125 869 -125 c 2
 131 -125 l 2
EndSplineSet
EndChar

StartChar: a
Encoding: 97 97 38
Width: 1000
Flags: MW
HStem: -125 21G<129.5 131 131 244 754.5 756 756 869> -125 21G<129.5 131 131 244 754.5 756 756 869> 625 125<250 750 250 750> 1125 125<131 369 244 369 254.5 369 256 369 631 744> 1250 125<256 619 369 619 379.5 619 381 619 381 744>
VStem: 125 125<-119 625 750 1119> 250 125<750 1131 1131 1244 1129.5 1245.5> 625 125<1131 1244> 750 125<-119 625 625 625 750 1119>
LayerCount: 2
Fore
SplineSet
381 1250 m 2x2b
 378 1250 375 1253 375 1256 c 2
 375 1369 l 2
 375 1372 378 1375 381 1375 c 2
 619 1375 l 2
 622 1375 625 1372 625 1369 c 2
 625 1256 l 2
 625 1253 622 1250 619 1250 c 2
 381 1250 l 2x2b
256 1125 m 2x32
 253 1125 250 1128 250 1131 c 2
 250 1244 l 2
 250 1247 253 1250 256 1250 c 2
 369 1250 l 2
 372 1250 375 1247 375 1244 c 2
 375 1131 l 2
 375 1128 372 1125 369 1125 c 2
 256 1125 l 2x32
631 1125 m 2
 628 1125 625 1128 625 1131 c 2
 625 1244 l 2
 625 1247 628 1250 631 1250 c 2
 744 1250 l 2
 747 1250 750 1247 750 1244 c 2
 750 1131 l 2x31
 750 1128 747 1125 744 1125 c 2
 631 1125 l 2
131 -125 m 2xb480
 128 -125 125 -122 125 -119 c 2
 125 1119 l 2
 125 1122 128 1125 131 1125 c 2
 244 1125 l 2
 247 1125 250 1122 250 1119 c 2
 250 750 l 1
 750 750 l 1
 750 1119 l 2
 750 1122 753 1125 756 1125 c 2
 869 1125 l 2
 872 1125 875 1122 875 1119 c 2
 875 -119 l 2
 875 -122 872 -125 869 -125 c 2
 756 -125 l 2
 753 -125 750 -122 750 -119 c 2
 750 625 l 1
 250 625 l 1
 250 -119 l 2
 250 -122 247 -125 244 -125 c 2
 131 -125 l 2xb480
EndSplineSet
EndChar

StartChar: b
Encoding: 98 98 39
Width: 1000
Flags: MW
HStem: -125 21G<129.5 131 131 619> -125 21G<129.5 131 131 619> 0 125<250 744 619 744 629.5 744 631 744> 500 125<250 631 631 744> 750 125<250 744 619 744 629.5 744 631 744> 1125 125<250 631 631 744> 1355 20G<131 619 619 620.5> 1355 20G<131 619 619 620.5>
VStem: 125 125<0 625 750 1250> 625 125<-120.5 6 -119 6 6 119 4.5 120.5 506 619 756 869 1131 1244> 750 125<4.5 131 6 131 131 494 881 1119>
LayerCount: 2
Fore
SplineSet
631 1125 m 2x3cc0
 628 1125 625 1128 625 1131 c 2
 625 1244 l 2
 625 1247 628 1250 631 1250 c 2
 744 1250 l 2
 747 1250 750 1247 750 1244 c 2
 750 1131 l 2
 750 1128 747 1125 744 1125 c 2
 631 1125 l 2x3cc0
756 875 m 2
 753 875 750 878 750 881 c 2
 750 1119 l 2
 750 1122 753 1125 756 1125 c 2
 869 1125 l 2
 872 1125 875 1122 875 1119 c 2
 875 881 l 2x3ca0
 875 878 872 875 869 875 c 2
 756 875 l 2
631 750 m 2
 628 750 625 753 625 756 c 2
 625 869 l 2
 625 872 628 875 631 875 c 2
 744 875 l 2
 747 875 750 872 750 869 c 2
 750 756 l 2x3cc0
 750 753 747 750 744 750 c 2
 631 750 l 2
631 500 m 2
 628 500 625 503 625 506 c 2
 625 619 l 2
 625 622 628 625 631 625 c 2
 744 625 l 2
 747 625 750 622 750 619 c 2
 750 506 l 2
 750 503 747 500 744 500 c 2
 631 500 l 2
756 125 m 2
 753 125 750 128 750 131 c 2
 750 494 l 2
 750 497 753 500 756 500 c 2
 869 500 l 2
 872 500 875 497 875 494 c 2
 875 131 l 2x3ca0
 875 128 872 125 869 125 c 2
 756 125 l 2
631 0 m 2
 628 0 625 3 625 6 c 2
 625 119 l 2
 625 122 628 125 631 125 c 2
 744 125 l 2
 747 125 750 122 750 119 c 2
 750 6 l 2x3cc0
 750 3 747 0 744 0 c 2
 631 0 l 2
131 -125 m 2xbec0
 128 -125 125 -122 125 -119 c 2
 125 1369 l 2
 125 1372 128 1375 131 1375 c 2
 619 1375 l 2
 622 1375 625 1372 625 1369 c 2
 625 1256 l 2
 625 1253 622 1250 619 1250 c 2
 250 1250 l 1
 250 750 l 1
 619 750 l 2
 622 750 625 747 625 744 c 2
 625 631 l 2
 625 628 622 625 619 625 c 2
 250 625 l 1
 250 0 l 1
 619 0 l 2
 622 0 625 -3 625 -6 c 2
 625 -119 l 2
 625 -122 622 -125 619 -125 c 2
 131 -125 l 2xbec0
EndSplineSet
EndChar

StartChar: c
Encoding: 99 99 40
Width: 1000
Flags: MW
HStem: -125 125<379.5 506 506 869> 0 125<254.5 381 381 494> 125 125<129.5 256 256 369> 1000 125<131 369 244 369 254.5 369 256 369> 1125 125<256 494 369 494 379.5 494 381 494> 1250 125<381 869 494 869 504.5 869 506 869>
VStem: 125 125<256 994> 250 125<131 244 1006 1119> 375 125<6 119 1131 1244>
LayerCount: 2
Fore
SplineSet
506 1250 m 2x0480
 503 1250 500 1253 500 1256 c 2
 500 1369 l 2
 500 1372 503 1375 506 1375 c 2
 869 1375 l 2
 872 1375 875 1372 875 1369 c 2
 875 1256 l 2
 875 1253 872 1250 869 1250 c 2
 506 1250 l 2x0480
381 1125 m 2x0880
 378 1125 375 1128 375 1131 c 2
 375 1244 l 2
 375 1247 378 1250 381 1250 c 2
 494 1250 l 2
 497 1250 500 1247 500 1244 c 2
 500 1131 l 2
 500 1128 497 1125 494 1125 c 2
 381 1125 l 2x0880
256 1000 m 2x11
 253 1000 250 1003 250 1006 c 2
 250 1119 l 2
 250 1122 253 1125 256 1125 c 2
 369 1125 l 2
 372 1125 375 1122 375 1119 c 2
 375 1006 l 2
 375 1003 372 1000 369 1000 c 2
 256 1000 l 2x11
131 250 m 2x32
 128 250 125 253 125 256 c 2
 125 994 l 2
 125 997 128 1000 131 1000 c 2
 244 1000 l 2
 247 1000 250 997 250 994 c 2
 250 256 l 2
 250 253 247 250 244 250 c 2
 131 250 l 2x32
256 125 m 2
 253 125 250 128 250 131 c 2
 250 244 l 2
 250 247 253 250 256 250 c 2
 369 250 l 2
 372 250 375 247 375 244 c 2
 375 131 l 2x21
 375 128 372 125 369 125 c 2
 256 125 l 2
381 0 m 2x4080
 378 0 375 3 375 6 c 2
 375 119 l 2
 375 122 378 125 381 125 c 2
 494 125 l 2
 497 125 500 122 500 119 c 2
 500 6 l 2
 500 3 497 0 494 0 c 2
 381 0 l 2x4080
506 -125 m 2x8080
 503 -125 500 -122 500 -119 c 2
 500 -6 l 2
 500 -3 503 0 506 0 c 2
 869 0 l 2
 872 0 875 -3 875 -6 c 2
 875 -119 l 2
 875 -122 872 -125 869 -125 c 2
 506 -125 l 2x8080
EndSplineSet
EndChar

StartChar: d
Encoding: 100 100 41
Width: 1000
Flags: MW
HStem: -125 21G<129.5 131 131 494> -125 21G<129.5 131 131 494> 0 125<250 619 494 619 504.5 619 506 619> 125 125<506 744 619 744 629.5 744 631 744> 1000 125<504.5 631 631 744> 1125 125<250 506 506 619> 1355 20G<131 494 494 495.5> 1355 20G<131 494 494 495.5>
VStem: 125 125<0 1250 0 1369 0 1370.5> 500 125<-120.5 6 -119 6 6 119 4.5 120.5 1131 1244> 625 125<4.5 131 6 131 131 244 129.5 245.5 1006 1119> 750 125<129.5 256 131 256 256 994>
LayerCount: 2
Fore
SplineSet
506 1125 m 2x04c0
 503 1125 500 1128 500 1131 c 2
 500 1244 l 2
 500 1247 503 1250 506 1250 c 2
 619 1250 l 2
 622 1250 625 1247 625 1244 c 2
 625 1131 l 2
 625 1128 622 1125 619 1125 c 2
 506 1125 l 2x04c0
631 1000 m 2x08a0
 628 1000 625 1003 625 1006 c 2
 625 1119 l 2
 625 1122 628 1125 631 1125 c 2
 744 1125 l 2
 747 1125 750 1122 750 1119 c 2
 750 1006 l 2
 750 1003 747 1000 744 1000 c 2
 631 1000 l 2x08a0
756 250 m 2x1890
 753 250 750 253 750 256 c 2
 750 994 l 2
 750 997 753 1000 756 1000 c 2
 869 1000 l 2
 872 1000 875 997 875 994 c 2
 875 256 l 2
 875 253 872 250 869 250 c 2
 756 250 l 2x1890
631 125 m 2
 628 125 625 128 625 131 c 2
 625 244 l 2
 625 247 628 250 631 250 c 2
 744 250 l 2
 747 250 750 247 750 244 c 2
 750 131 l 2x10a0
 750 128 747 125 744 125 c 2
 631 125 l 2
506 0 m 2x20c0
 503 0 500 3 500 6 c 2
 500 119 l 2
 500 122 503 125 506 125 c 2
 619 125 l 2
 622 125 625 122 625 119 c 2
 625 6 l 2
 625 3 622 0 619 0 c 2
 506 0 l 2x20c0
131 -125 m 2xa6c0
 128 -125 125 -122 125 -119 c 2
 125 1369 l 2
 125 1372 128 1375 131 1375 c 2
 494 1375 l 2
 497 1375 500 1372 500 1369 c 2
 500 1256 l 2
 500 1253 497 1250 494 1250 c 2
 250 1250 l 1
 250 0 l 1
 494 0 l 2
 497 0 500 -3 500 -6 c 2
 500 -119 l 2
 500 -122 497 -125 494 -125 c 2
 131 -125 l 2xa6c0
EndSplineSet
EndChar

StartChar: e
Encoding: 101 101 42
Width: 1000
Flags: MW
HStem: -125 125<129.5 869 250 869 250 869> 625 125<250 619 250 619> 1250 125<250 869 250 250>
VStem: 125 125<0 625 750 1250>
LayerCount: 2
Fore
SplineSet
131 -125 m 2
 128 -125 125 -122 125 -119 c 2
 125 1369 l 2
 125 1372 128 1375 131 1375 c 2
 869 1375 l 2
 872 1375 875 1372 875 1369 c 2
 875 1256 l 2
 875 1253 872 1250 869 1250 c 2
 250 1250 l 1
 250 750 l 1
 619 750 l 2
 622 750 625 747 625 744 c 2
 625 631 l 2
 625 628 622 625 619 625 c 2
 250 625 l 1
 250 0 l 1
 869 0 l 2
 872 0 875 -3 875 -6 c 2
 875 -119 l 2
 875 -122 872 -125 869 -125 c 2
 131 -125 l 2
EndSplineSet
EndChar

StartChar: f
Encoding: 102 102 43
Width: 1000
Flags: MW
HStem: -125 21G<129.5 131 131 244> -125 21G<129.5 131 131 244> 625 125<250 619 250 619> 1250 125<250 869 250 250>
VStem: 125 125<-119 625 750 1250>
LayerCount: 2
Fore
SplineSet
131 -125 m 2xb8
 128 -125 125 -122 125 -119 c 2
 125 1369 l 2
 125 1372 128 1375 131 1375 c 2
 869 1375 l 2
 872 1375 875 1372 875 1369 c 2
 875 1256 l 2
 875 1253 872 1250 869 1250 c 2
 250 1250 l 1
 250 750 l 1
 619 750 l 2
 622 750 625 747 625 744 c 2
 625 631 l 2
 625 628 622 625 619 625 c 2
 250 625 l 1
 250 -119 l 2
 250 -122 247 -125 244 -125 c 2
 131 -125 l 2xb8
EndSplineSet
EndChar

StartChar: g
Encoding: 103 103 44
Width: 1000
Flags: MW
HStem: -125 125<254.5 381 381 619> 0 125<129.5 256 256 369 631 744> 500 125<504.5 869 506 750> 1000 125<756 869> 1125 125<131 369 244 369 254.5 369 256 369 631 744> 1250 125<256 619 369 619 379.5 619 381 619 381 744>
VStem: 125 125<131 1119> 250 125<6 119 1131 1244> 375 250<-119 -6 -120.5 -4.5 -120.5 6 6 119 1131 1244 1256 1369> 625 125<-120.5 6 -119 6 6 119 4.5 120.5 1131 1244> 750 125<4.5 131 6 131 131 500 500 500 1006 1119>
LayerCount: 2
Fore
SplineSet
381 1250 m 2x2480
 378 1250 375 1253 375 1256 c 2
 375 1369 l 2
 375 1372 378 1375 381 1375 c 2
 619 1375 l 2
 622 1375 625 1372 625 1369 c 2
 625 1256 l 2
 625 1253 622 1250 619 1250 c 2
 381 1250 l 2x2480
256 1125 m 2x29
 253 1125 250 1128 250 1131 c 2
 250 1244 l 2
 250 1247 253 1250 256 1250 c 2
 369 1250 l 2
 372 1250 375 1247 375 1244 c 2
 375 1131 l 2
 375 1128 372 1125 369 1125 c 2
 256 1125 l 2x29
631 1125 m 2
 628 1125 625 1128 625 1131 c 2
 625 1244 l 2
 625 1247 628 1250 631 1250 c 2
 744 1250 l 2
 747 1250 750 1247 750 1244 c 2
 750 1131 l 2x2840
 750 1128 747 1125 744 1125 c 2
 631 1125 l 2
756 1000 m 2x3020
 753 1000 750 1003 750 1006 c 2
 750 1119 l 2
 750 1122 753 1125 756 1125 c 2
 869 1125 l 2
 872 1125 875 1122 875 1119 c 2
 875 1006 l 2
 875 1003 872 1000 869 1000 c 2
 756 1000 l 2x3020
506 500 m 2
 503 500 500 503 500 506 c 2
 500 619 l 2
 500 622 503 625 506 625 c 2
 869 625 l 2
 872 625 875 622 875 619 c 2
 875 131 l 2
 875 128 872 125 869 125 c 2
 756 125 l 2x6020
 753 125 750 128 750 131 c 2
 750 500 l 1
 506 500 l 2
131 125 m 2
 128 125 125 128 125 131 c 2
 125 1119 l 2
 125 1122 128 1125 131 1125 c 2
 244 1125 l 2
 247 1125 250 1122 250 1119 c 2
 250 131 l 2x6a
 250 128 247 125 244 125 c 2
 131 125 l 2
256 0 m 2
 253 0 250 3 250 6 c 2
 250 119 l 2
 250 122 253 125 256 125 c 2
 369 125 l 2
 372 125 375 122 375 119 c 2
 375 6 l 2x61
 375 3 372 0 369 0 c 2
 256 0 l 2
631 0 m 2
 628 0 625 3 625 6 c 2
 625 119 l 2
 625 122 628 125 631 125 c 2
 744 125 l 2
 747 125 750 122 750 119 c 2
 750 6 l 2x6040
 750 3 747 0 744 0 c 2
 631 0 l 2
381 -125 m 2xa080
 378 -125 375 -122 375 -119 c 2
 375 -6 l 2
 375 -3 378 0 381 0 c 2
 619 0 l 2
 622 0 625 -3 625 -6 c 2
 625 -119 l 2
 625 -122 622 -125 619 -125 c 2
 381 -125 l 2xa080
EndSplineSet
EndChar

StartChar: h
Encoding: 104 104 45
Width: 1000
Flags: MW
HStem: -125 21G<129.5 131 131 244 754.5 756 756 869> -125 21G<129.5 131 131 244 754.5 756 756 869> 625 125<250 750 250 750> 1355 20G<131 244 244 245.5 756 869 869 870.5> 1355 20G<131 244 244 245.5 756 869 869 870.5>
VStem: 125 125<-119 625 750 1369> 750 125<-119 625 625 625 750 1369>
LayerCount: 2
Fore
SplineSet
131 -125 m 2xb6
 128 -125 125 -122 125 -119 c 2
 125 1369 l 2
 125 1372 128 1375 131 1375 c 2
 244 1375 l 2
 247 1375 250 1372 250 1369 c 2
 250 750 l 1
 750 750 l 1
 750 1369 l 2
 750 1372 753 1375 756 1375 c 2
 869 1375 l 2
 872 1375 875 1372 875 1369 c 2
 875 -119 l 2
 875 -122 872 -125 869 -125 c 2
 756 -125 l 2
 753 -125 750 -122 750 -119 c 2
 750 625 l 1
 250 625 l 1
 250 -119 l 2
 250 -122 247 -125 244 -125 c 2
 131 -125 l 2xb6
EndSplineSet
EndChar

StartChar: i
Encoding: 105 105 46
Width: 1000
Flags: MW
HStem: -125 125<129.5 375 131 375 500 869> 1250 125<129.5 869 131 375 500 500 500 869>
VStem: 375 125<0 1250 0 1250>
LayerCount: 2
Fore
SplineSet
131 1250 m 2
 128 1250 125 1253 125 1256 c 2
 125 1369 l 2
 125 1372 128 1375 131 1375 c 2
 869 1375 l 2
 872 1375 875 1372 875 1369 c 2
 875 1256 l 2
 875 1253 872 1250 869 1250 c 2
 500 1250 l 1
 500 0 l 1
 869 0 l 2
 872 0 875 -3 875 -6 c 2
 875 -119 l 2
 875 -122 872 -125 869 -125 c 2
 131 -125 l 2
 128 -125 125 -122 125 -119 c 2
 125 -6 l 2
 125 -3 128 0 131 0 c 2
 375 0 l 1
 375 1250 l 1
 131 1250 l 2
EndSplineSet
EndChar

StartChar: j
Encoding: 106 106 47
Width: 1000
Flags: MW
HStem: -125 125<129.5 256 256 744> 1250 125<504.5 869 506 750>
VStem: 125 125<6 244> 750 125<-120.5 6 -119 6 6 1250 1250 1250>
LayerCount: 2
Fore
SplineSet
506 1250 m 2
 503 1250 500 1253 500 1256 c 2
 500 1369 l 2
 500 1372 503 1375 506 1375 c 2
 869 1375 l 2
 872 1375 875 1372 875 1369 c 2
 875 6 l 2
 875 3 872 0 869 0 c 2
 756 0 l 2
 753 0 750 3 750 6 c 2
 750 1250 l 1
 506 1250 l 2
131 0 m 2
 128 0 125 3 125 6 c 2
 125 244 l 2
 125 247 128 250 131 250 c 2
 244 250 l 2
 247 250 250 247 250 244 c 2
 250 6 l 2
 250 3 247 0 244 0 c 2
 131 0 l 2
256 -125 m 2
 253 -125 250 -122 250 -119 c 2
 250 -6 l 2
 250 -3 253 0 256 0 c 2
 744 0 l 2
 747 0 750 -3 750 -6 c 2
 750 -119 l 2
 750 -122 747 -125 744 -125 c 2
 256 -125 l 2
EndSplineSet
EndChar

StartChar: k
Encoding: 107 107 48
Width: 1000
Flags: MW
HStem: -125 125<629.5 756 756 869> 500 250<250 494 250 494 506 619 250 620.5> 1250 125<756 869>
VStem: 125 125<-119 500 750 1369> 500 125<256 494 756 994> 625 125<6 244 1006 1244> 750 125<-119 -6 -120.5 -4.5 -120.5 6 1256 1369>
CounterMasks: 1 e0
LayerCount: 2
Fore
SplineSet
756 1250 m 2xf2
 753 1250 750 1253 750 1256 c 2
 750 1369 l 2
 750 1372 753 1375 756 1375 c 2
 869 1375 l 2
 872 1375 875 1372 875 1369 c 2
 875 1256 l 2
 875 1253 872 1250 869 1250 c 2
 756 1250 l 2xf2
631 1000 m 2
 628 1000 625 1003 625 1006 c 2
 625 1244 l 2
 625 1247 628 1250 631 1250 c 2
 744 1250 l 2
 747 1250 750 1247 750 1244 c 2
 750 1006 l 2xf4
 750 1003 747 1000 744 1000 c 2
 631 1000 l 2
506 750 m 2
 503 750 500 753 500 756 c 2
 500 994 l 2
 500 997 503 1000 506 1000 c 2
 619 1000 l 2
 622 1000 625 997 625 994 c 2
 625 756 l 2xf8
 625 753 622 750 619 750 c 2
 506 750 l 2
506 250 m 2
 503 250 500 253 500 256 c 2
 500 494 l 2
 500 497 503 500 506 500 c 2
 619 500 l 2
 622 500 625 497 625 494 c 2
 625 256 l 2
 625 253 622 250 619 250 c 2
 506 250 l 2
631 0 m 2
 628 0 625 3 625 6 c 2
 625 244 l 2
 625 247 628 250 631 250 c 2
 744 250 l 2
 747 250 750 247 750 244 c 2
 750 6 l 2xf4
 750 3 747 0 744 0 c 2
 631 0 l 2
131 -125 m 2
 128 -125 125 -122 125 -119 c 2
 125 1369 l 2
 125 1372 128 1375 131 1375 c 2
 244 1375 l 2
 247 1375 250 1372 250 1369 c 2
 250 750 l 1
 494 750 l 2
 497 750 500 747 500 744 c 2
 500 506 l 2xf8
 500 503 497 500 494 500 c 2
 250 500 l 1
 250 -119 l 2
 250 -122 247 -125 244 -125 c 2
 131 -125 l 2
756 -125 m 2
 753 -125 750 -122 750 -119 c 2
 750 -6 l 2
 750 -3 753 0 756 0 c 2
 869 0 l 2
 872 0 875 -3 875 -6 c 2
 875 -119 l 2xf2
 875 -122 872 -125 869 -125 c 2
 756 -125 l 2
EndSplineSet
EndChar

StartChar: l
Encoding: 108 108 49
Width: 1000
Flags: MW
HStem: -125 125<129.5 869 250 869 250 869> 1355 20G<131 244 244 245.5> 1355 20G<131 244 244 245.5>
VStem: 125 125<0 1369 0 1369 0 1370.5>
LayerCount: 2
Fore
SplineSet
131 -125 m 2xd0
 128 -125 125 -122 125 -119 c 2
 125 1369 l 2
 125 1372 128 1375 131 1375 c 2
 244 1375 l 2
 247 1375 250 1372 250 1369 c 2
 250 0 l 1
 869 0 l 2
 872 0 875 -3 875 -6 c 2
 875 -119 l 2
 875 -122 872 -125 869 -125 c 2
 131 -125 l 2xd0
EndSplineSet
EndChar

StartChar: m
Encoding: 109 109 50
Width: 1000
Flags: MW
HStem: -125 21G<129.5 131 131 244 754.5 756 756 869> -125 21G<129.5 131 131 244 754.5 756 756 869> 750 125<379.5 506 506 619> 1355 20G<131 369 369 370.5 631 869 869 870.5> 1355 20G<131 369 369 370.5 631 869 869 870.5>
VStem: 125 125<-119 1125> 125 250<881 1119 1119 1120.5 1129.5 1131 1131 1369> 375 125<881 1119> 500 125<756 869 754.5 870.5 754.5 881 881 1119> 625 250<754.5 756 756 869 881 1369> 750 125<-119 875 875 875>
LayerCount: 2
Fore
SplineSet
381 875 m 2x21
 378 875 375 878 375 881 c 2
 375 1119 l 2
 375 1122 378 1125 381 1125 c 2
 494 1125 l 2
 497 1125 500 1122 500 1119 c 2
 500 881 l 2
 500 878 497 875 494 875 c 2
 381 875 l 2x21
631 875 m 2
 628 875 625 878 625 881 c 2
 625 1369 l 2
 625 1372 628 1375 631 1375 c 2
 869 1375 l 2
 872 1375 875 1372 875 1369 c 2xb040
 875 -119 l 2
 875 -122 872 -125 869 -125 c 2
 756 -125 l 2
 753 -125 750 -122 750 -119 c 2
 750 875 l 1xb020
 631 875 l 2
506 750 m 2
 503 750 500 753 500 756 c 2
 500 869 l 2
 500 872 503 875 506 875 c 2
 619 875 l 2
 622 875 625 872 625 869 c 2
 625 756 l 2x2080
 625 753 622 750 619 750 c 2
 506 750 l 2
131 -125 m 2xb4
 128 -125 125 -122 125 -119 c 2xb4
 125 1369 l 2
 125 1372 128 1375 131 1375 c 2
 369 1375 l 2
 372 1375 375 1372 375 1369 c 2
 375 1131 l 2xb2
 375 1128 372 1125 369 1125 c 2
 250 1125 l 1
 250 -119 l 2
 250 -122 247 -125 244 -125 c 2
 131 -125 l 2xb4
EndSplineSet
EndChar

StartChar: n
Encoding: 110 110 51
Width: 1000
Flags: MW
HStem: -125 21G<129.5 131 131 244 754.5 756 756 869> -125 21G<129.5 131 131 244 754.5 756 756 869> 1355 20G<131 369 369 370.5 756 869 869 870.5> 1355 20G<131 369 369 370.5 756 869 869 870.5>
VStem: 125 125<-119 1125> 125 250<881 1119 1119 1120.5 1129.5 1131 1131 1369> 375 125<881 1119> 500 125<631 869> 625 250<381 619 619 620.5 629.5 631 631 869> 750 125<-119 375 375 375 625 1369>
LayerCount: 2
Fore
SplineSet
381 875 m 2x02
 378 875 375 878 375 881 c 2
 375 1119 l 2
 375 1122 378 1125 381 1125 c 2
 494 1125 l 2
 497 1125 500 1122 500 1119 c 2
 500 881 l 2
 500 878 497 875 494 875 c 2
 381 875 l 2x02
506 625 m 2
 503 625 500 628 500 631 c 2
 500 869 l 2
 500 872 503 875 506 875 c 2
 619 875 l 2
 622 875 625 872 625 869 c 2
 625 631 l 2x01
 625 628 622 625 619 625 c 2
 506 625 l 2
631 375 m 2
 628 375 625 378 625 381 c 2
 625 619 l 2xa080
 625 622 628 625 631 625 c 2
 750 625 l 1
 750 1369 l 2
 750 1372 753 1375 756 1375 c 2
 869 1375 l 2
 872 1375 875 1372 875 1369 c 2
 875 -119 l 2
 875 -122 872 -125 869 -125 c 2
 756 -125 l 2
 753 -125 750 -122 750 -119 c 2
 750 375 l 1xa040
 631 375 l 2
131 -125 m 2
 128 -125 125 -122 125 -119 c 2xa8
 125 1369 l 2
 125 1372 128 1375 131 1375 c 2
 369 1375 l 2
 372 1375 375 1372 375 1369 c 2
 375 1131 l 2xa4
 375 1128 372 1125 369 1125 c 2
 250 1125 l 1
 250 -119 l 2xa8
 250 -122 247 -125 244 -125 c 2
 131 -125 l 2
EndSplineSet
EndChar

StartChar: o
Encoding: 111 111 52
Width: 1000
Flags: MW
HStem: -125 125<254.5 381 381 619> 0 125<129.5 256 256 369 631 744> 1125 125<131 369 244 369 254.5 369 256 369 631 744> 1250 125<256 619 369 619 379.5 619 381 619 381 744>
VStem: 125 125<131 1119> 250 125<6 119 1131 1244> 375 250<-119 -6 -120.5 -4.5 -120.5 6 6 119 1131 1244 1256 1369> 625 125<-120.5 6 -119 6 6 119 4.5 120.5 1131 1244> 750 125<4.5 131 6 131 131 1119>
LayerCount: 2
Fore
SplineSet
381 1250 m 2x12
 378 1250 375 1253 375 1256 c 2
 375 1369 l 2
 375 1372 378 1375 381 1375 c 2
 619 1375 l 2
 622 1375 625 1372 625 1369 c 2
 625 1256 l 2
 625 1253 622 1250 619 1250 c 2
 381 1250 l 2x12
256 1125 m 2x24
 253 1125 250 1128 250 1131 c 2
 250 1244 l 2
 250 1247 253 1250 256 1250 c 2
 369 1250 l 2
 372 1250 375 1247 375 1244 c 2
 375 1131 l 2
 375 1128 372 1125 369 1125 c 2
 256 1125 l 2x24
631 1125 m 2
 628 1125 625 1128 625 1131 c 2
 625 1244 l 2
 625 1247 628 1250 631 1250 c 2
 744 1250 l 2
 747 1250 750 1247 750 1244 c 2
 750 1131 l 2x21
 750 1128 747 1125 744 1125 c 2
 631 1125 l 2
131 125 m 2x68
 128 125 125 128 125 131 c 2
 125 1119 l 2
 125 1122 128 1125 131 1125 c 2
 244 1125 l 2
 247 1125 250 1122 250 1119 c 2
 250 131 l 2
 250 128 247 125 244 125 c 2
 131 125 l 2x68
756 125 m 2
 753 125 750 128 750 131 c 2
 750 1119 l 2
 750 1122 753 1125 756 1125 c 2
 869 1125 l 2
 872 1125 875 1122 875 1119 c 2
 875 131 l 2x6080
 875 128 872 125 869 125 c 2
 756 125 l 2
256 0 m 2
 253 0 250 3 250 6 c 2
 250 119 l 2
 250 122 253 125 256 125 c 2
 369 125 l 2
 372 125 375 122 375 119 c 2
 375 6 l 2x44
 375 3 372 0 369 0 c 2
 256 0 l 2
631 0 m 2
 628 0 625 3 625 6 c 2
 625 119 l 2
 625 122 628 125 631 125 c 2
 744 125 l 2
 747 125 750 122 750 119 c 2
 750 6 l 2x41
 750 3 747 0 744 0 c 2
 631 0 l 2
381 -125 m 2x82
 378 -125 375 -122 375 -119 c 2
 375 -6 l 2
 375 -3 378 0 381 0 c 2
 619 0 l 2
 622 0 625 -3 625 -6 c 2
 625 -119 l 2
 625 -122 622 -125 619 -125 c 2
 381 -125 l 2x82
EndSplineSet
EndChar

StartChar: p
Encoding: 112 112 53
Width: 1000
Flags: MW
HStem: -125 21G<129.5 131 131 244> -125 21G<129.5 131 131 244> 750 125<250 744 619 744 629.5 744 631 744> 1125 125<250 631 631 744> 1355 20G<131 619 619 620.5> 1355 20G<131 619 619 620.5>
VStem: 125 125<-119 625 750 1250> 625 125<629.5 756 631 756 756 869 754.5 870.5 1131 1244> 750 125<754.5 881 756 881 881 1119>
LayerCount: 2
Fore
SplineSet
631 1125 m 2x33
 628 1125 625 1128 625 1131 c 2
 625 1244 l 2
 625 1247 628 1250 631 1250 c 2
 744 1250 l 2
 747 1250 750 1247 750 1244 c 2
 750 1131 l 2
 750 1128 747 1125 744 1125 c 2
 631 1125 l 2x33
756 875 m 2
 753 875 750 878 750 881 c 2
 750 1119 l 2
 750 1122 753 1125 756 1125 c 2
 869 1125 l 2
 872 1125 875 1122 875 1119 c 2
 875 881 l 2x3280
 875 878 872 875 869 875 c 2
 756 875 l 2
631 750 m 2
 628 750 625 753 625 756 c 2
 625 869 l 2
 625 872 628 875 631 875 c 2
 744 875 l 2
 747 875 750 872 750 869 c 2
 750 756 l 2x33
 750 753 747 750 744 750 c 2
 631 750 l 2
131 -125 m 2xbb
 128 -125 125 -122 125 -119 c 2
 125 1369 l 2
 125 1372 128 1375 131 1375 c 2
 619 1375 l 2
 622 1375 625 1372 625 1369 c 2
 625 1256 l 2
 625 1253 622 1250 619 1250 c 2
 250 1250 l 1
 250 750 l 1
 619 750 l 2
 622 750 625 747 625 744 c 2
 625 631 l 2
 625 628 622 625 619 625 c 2
 250 625 l 1
 250 -119 l 2
 250 -122 247 -125 244 -125 c 2
 131 -125 l 2xbb
EndSplineSet
EndChar

StartChar: q
Encoding: 113 113 54
Width: 1000
Flags: MW
HStem: -125 125<254.5 381 381 619 756 869> 0 125<129.5 256 256 369 504.5 506 506 619 631 744 756 869> 125 125<256 381 369 381 379.5 506 506 619> 250 125<379.5 494 381 494 381 619> 1125 125<131 369 244 369 254.5 369 256 369 631 744> 1250 125<256 619 369 619 379.5 619 381 619 381 744>
VStem: 125 125<131 1119> 250 125<6 119 256 369 369 370.5 1131 1244> 375 125<6 244 256 369> 500 125<131 244> 625 125<-120.5 -6 -119 -6 6 119 131 244 1131 1244> 750 125<-119 -6 -120.5 -4.5 -120.5 6 131 1119>
LayerCount: 2
Fore
SplineSet
381 1250 m 2x04a0
 378 1250 375 1253 375 1256 c 2
 375 1369 l 2
 375 1372 378 1375 381 1375 c 2
 619 1375 l 2
 622 1375 625 1372 625 1369 c 2
 625 1256 l 2
 625 1253 622 1250 619 1250 c 2
 381 1250 l 2x04a0
256 1125 m 2x09
 253 1125 250 1128 250 1131 c 2
 250 1244 l 2
 250 1247 253 1250 256 1250 c 2
 369 1250 l 2
 372 1250 375 1247 375 1244 c 2
 375 1131 l 2
 375 1128 372 1125 369 1125 c 2
 256 1125 l 2x09
631 1125 m 2
 628 1125 625 1128 625 1131 c 2
 625 1244 l 2
 625 1247 628 1250 631 1250 c 2
 744 1250 l 2
 747 1250 750 1247 750 1244 c 2
 750 1131 l 2x0820
 750 1128 747 1125 744 1125 c 2
 631 1125 l 2
381 250 m 2x1080
 378 250 375 253 375 256 c 2
 375 369 l 2
 375 372 378 375 381 375 c 2
 494 375 l 2
 497 375 500 372 500 369 c 2
 500 256 l 2
 500 253 497 250 494 250 c 2
 381 250 l 2x1080
131 125 m 2x2a
 128 125 125 128 125 131 c 2
 125 1119 l 2
 125 1122 128 1125 131 1125 c 2
 244 1125 l 2
 247 1125 250 1122 250 1119 c 2
 250 131 l 2
 250 128 247 125 244 125 c 2
 131 125 l 2x2a
506 125 m 2
 503 125 500 128 500 131 c 2
 500 244 l 2
 500 247 503 250 506 250 c 2
 619 250 l 2
 622 250 625 247 625 244 c 2
 625 131 l 2x2040
 625 128 622 125 619 125 c 2
 506 125 l 2
756 125 m 2
 753 125 750 128 750 131 c 2
 750 1119 l 2
 750 1122 753 1125 756 1125 c 2
 869 1125 l 2
 872 1125 875 1122 875 1119 c 2
 875 131 l 2x2810
 875 128 872 125 869 125 c 2
 756 125 l 2
256 0 m 2x41
 253 0 250 3 250 6 c 2
 250 119 l 2
 250 122 253 125 256 125 c 2
 369 125 l 2
 372 125 375 122 375 119 c 2
 375 6 l 2
 375 3 372 0 369 0 c 2
 256 0 l 2x41
631 0 m 2
 628 0 625 3 625 6 c 2
 625 119 l 2
 625 122 628 125 631 125 c 2
 744 125 l 2
 747 125 750 122 750 119 c 2
 750 6 l 2x4020
 750 3 747 0 744 0 c 2
 631 0 l 2
381 -125 m 2x80a0
 378 -125 375 -122 375 -119 c 2
 375 -6 l 2
 375 -3 378 0 381 0 c 2
 619 0 l 2
 622 0 625 -3 625 -6 c 2
 625 -119 l 2
 625 -122 622 -125 619 -125 c 2
 381 -125 l 2x80a0
756 -125 m 2
 753 -125 750 -122 750 -119 c 2
 750 -6 l 2
 750 -3 753 0 756 0 c 2
 869 0 l 2
 872 0 875 -3 875 -6 c 2
 875 -119 l 2x8010
 875 -122 872 -125 869 -125 c 2
 756 -125 l 2
EndSplineSet
EndChar

StartChar: r
Encoding: 114 114 55
Width: 1000
Flags: MW
HStem: -125 21G<129.5 131 131 244 754.5 756 756 869> -125 21G<129.5 131 131 244 754.5 756 756 869> 500 125<250 631 631 744> 750 125<250 744 619 744 629.5 744 631 744> 1125 125<250 631 631 744> 1355 20G<131 619 619 620.5> 1355 20G<131 619 619 620.5>
VStem: 125 125<-119 625 750 1250> 625 125<506 619 756 869 1131 1244> 750 125<-119 494 881 1119>
LayerCount: 2
Fore
SplineSet
631 1125 m 2x3980
 628 1125 625 1128 625 1131 c 2
 625 1244 l 2
 625 1247 628 1250 631 1250 c 2
 744 1250 l 2
 747 1250 750 1247 750 1244 c 2
 750 1131 l 2
 750 1128 747 1125 744 1125 c 2
 631 1125 l 2x3980
756 875 m 2
 753 875 750 878 750 881 c 2
 750 1119 l 2
 750 1122 753 1125 756 1125 c 2
 869 1125 l 2
 872 1125 875 1122 875 1119 c 2
 875 881 l 2x3940
 875 878 872 875 869 875 c 2
 756 875 l 2
631 750 m 2
 628 750 625 753 625 756 c 2
 625 869 l 2
 625 872 628 875 631 875 c 2
 744 875 l 2
 747 875 750 872 750 869 c 2
 750 756 l 2x3980
 750 753 747 750 744 750 c 2
 631 750 l 2
631 500 m 2
 628 500 625 503 625 506 c 2
 625 619 l 2
 625 622 628 625 631 625 c 2
 744 625 l 2
 747 625 750 622 750 619 c 2
 750 506 l 2
 750 503 747 500 744 500 c 2
 631 500 l 2
131 -125 m 2xbd80
 128 -125 125 -122 125 -119 c 2
 125 1369 l 2
 125 1372 128 1375 131 1375 c 2
 619 1375 l 2
 622 1375 625 1372 625 1369 c 2
 625 1256 l 2
 625 1253 622 1250 619 1250 c 2
 250 1250 l 1
 250 750 l 1
 619 750 l 2
 622 750 625 747 625 744 c 2
 625 631 l 2
 625 628 622 625 619 625 c 2
 250 625 l 1
 250 -119 l 2
 250 -122 247 -125 244 -125 c 2
 131 -125 l 2xbd80
756 -125 m 2
 753 -125 750 -122 750 -119 c 2
 750 494 l 2
 750 497 753 500 756 500 c 2
 869 500 l 2
 872 500 875 497 875 494 c 2
 875 -119 l 2xb940
 875 -122 872 -125 869 -125 c 2
 756 -125 l 2
EndSplineSet
EndChar

StartChar: s
Encoding: 115 115 56
Width: 1000
Flags: MW
HStem: -125 125<129.5 256 256 744> 500 125<506 744> 625 125<129.5 256 256 494> 1250 125<131 744 244 744 254.5 744 256 744 256 869>
VStem: 125 125<6 244 756 1244> 750 125<-120.5 6 -119 6 6 494 1006 1244>
LayerCount: 2
Fore
SplineSet
256 1250 m 2x9c
 253 1250 250 1253 250 1256 c 2
 250 1369 l 2
 250 1372 253 1375 256 1375 c 2
 744 1375 l 2
 747 1375 750 1372 750 1369 c 2
 750 1256 l 2
 750 1253 747 1250 744 1250 c 2
 256 1250 l 2x9c
756 1000 m 2
 753 1000 750 1003 750 1006 c 2
 750 1244 l 2
 750 1247 753 1250 756 1250 c 2
 869 1250 l 2
 872 1250 875 1247 875 1244 c 2
 875 1006 l 2
 875 1003 872 1000 869 1000 c 2
 756 1000 l 2
131 750 m 2xbc
 128 750 125 753 125 756 c 2
 125 1244 l 2
 125 1247 128 1250 131 1250 c 2
 244 1250 l 2
 247 1250 250 1247 250 1244 c 2
 250 756 l 2
 250 753 247 750 244 750 c 2
 131 750 l 2xbc
256 625 m 2
 253 625 250 628 250 631 c 2
 250 744 l 2
 250 747 253 750 256 750 c 2
 494 750 l 2
 497 750 500 747 500 744 c 2
 500 631 l 2
 500 628 497 625 494 625 c 2
 256 625 l 2
506 500 m 2xdc
 503 500 500 503 500 506 c 2
 500 619 l 2
 500 622 503 625 506 625 c 2
 744 625 l 2
 747 625 750 622 750 619 c 2
 750 506 l 2
 750 503 747 500 744 500 c 2
 506 500 l 2xdc
131 0 m 2
 128 0 125 3 125 6 c 2
 125 244 l 2
 125 247 128 250 131 250 c 2
 244 250 l 2
 247 250 250 247 250 244 c 2
 250 6 l 2
 250 3 247 0 244 0 c 2
 131 0 l 2
756 0 m 2
 753 0 750 3 750 6 c 2
 750 494 l 2
 750 497 753 500 756 500 c 2
 869 500 l 2
 872 500 875 497 875 494 c 2
 875 6 l 2
 875 3 872 0 869 0 c 2
 756 0 l 2
256 -125 m 2
 253 -125 250 -122 250 -119 c 2
 250 -6 l 2
 250 -3 253 0 256 0 c 2
 744 0 l 2
 747 0 750 -3 750 -6 c 2
 750 -119 l 2
 750 -122 747 -125 744 -125 c 2
 256 -125 l 2
EndSplineSet
EndChar

StartChar: t
Encoding: 116 116 57
Width: 1000
Flags: MW
HStem: -125 21G<379.5 381 381 494> -125 21G<379.5 381 381 494> 1250 125<129.5 869 131 375 500 500 500 869>
VStem: 375 125<-119 1250>
LayerCount: 2
Fore
SplineSet
131 1250 m 2xb0
 128 1250 125 1253 125 1256 c 2
 125 1369 l 2
 125 1372 128 1375 131 1375 c 2
 869 1375 l 2
 872 1375 875 1372 875 1369 c 2
 875 1256 l 2
 875 1253 872 1250 869 1250 c 2
 500 1250 l 1
 500 -119 l 2
 500 -122 497 -125 494 -125 c 2
 381 -125 l 2
 378 -125 375 -122 375 -119 c 2
 375 1250 l 1
 131 1250 l 2xb0
EndSplineSet
EndChar

StartChar: u
Encoding: 117 117 58
Width: 1000
Flags: MW
HStem: -125 125<254.5 381 381 619> 0 125<129.5 256 256 369 631 744> 1355 20G<131 244 244 245.5 756 869 869 870.5> 1355 20G<131 244 244 245.5 756 869 869 870.5>
VStem: 125 125<131 1369> 250 125<6 119> 625 125<-120.5 6 -119 6 6 119 4.5 120.5> 750 125<4.5 131 6 131 131 1369>
LayerCount: 2
Fore
SplineSet
131 125 m 2x68
 128 125 125 128 125 131 c 2
 125 1369 l 2
 125 1372 128 1375 131 1375 c 2
 244 1375 l 2
 247 1375 250 1372 250 1369 c 2
 250 131 l 2
 250 128 247 125 244 125 c 2
 131 125 l 2x68
756 125 m 2
 753 125 750 128 750 131 c 2
 750 1369 l 2
 750 1372 753 1375 756 1375 c 2
 869 1375 l 2
 872 1375 875 1372 875 1369 c 2
 875 131 l 2x61
 875 128 872 125 869 125 c 2
 756 125 l 2
256 0 m 2
 253 0 250 3 250 6 c 2
 250 119 l 2
 250 122 253 125 256 125 c 2
 369 125 l 2
 372 125 375 122 375 119 c 2
 375 6 l 2x44
 375 3 372 0 369 0 c 2
 256 0 l 2
631 0 m 2
 628 0 625 3 625 6 c 2
 625 119 l 2
 625 122 628 125 631 125 c 2
 744 125 l 2
 747 125 750 122 750 119 c 2
 750 6 l 2x42
 750 3 747 0 744 0 c 2
 631 0 l 2
381 -125 m 2x86
 378 -125 375 -122 375 -119 c 2
 375 -6 l 2
 375 -3 378 0 381 0 c 2
 619 0 l 2
 622 0 625 -3 625 -6 c 2
 625 -119 l 2
 625 -122 622 -125 619 -125 c 2
 381 -125 l 2x86
EndSplineSet
EndChar

StartChar: v
Encoding: 118 118 59
Width: 1000
Flags: MW
HStem: -125 250<254.5 381 381 619> 125 125<129.5 256 256 369 631 744> 1355 20G<131 244 244 245.5 756 869 869 870.5> 1355 20G<131 244 244 245.5 756 869 869 870.5>
VStem: 125 125<256 1369> 250 125<131 244> 375 250<-119 119 -120.5 120.5 -120.5 131 131 244> 625 125<-119 131 131 244 129.5 245.5> 750 125<129.5 256 131 256 256 1369>
LayerCount: 2
Fore
SplineSet
131 250 m 2x68
 128 250 125 253 125 256 c 2
 125 1369 l 2
 125 1372 128 1375 131 1375 c 2
 244 1375 l 2
 247 1375 250 1372 250 1369 c 2
 250 256 l 2
 250 253 247 250 244 250 c 2
 131 250 l 2x68
756 250 m 2
 753 250 750 253 750 256 c 2
 750 1369 l 2
 750 1372 753 1375 756 1375 c 2
 869 1375 l 2
 872 1375 875 1372 875 1369 c 2
 875 256 l 2x6080
 875 253 872 250 869 250 c 2
 756 250 l 2
256 125 m 2
 253 125 250 128 250 131 c 2
 250 244 l 2
 250 247 253 250 256 250 c 2
 369 250 l 2
 372 250 375 247 375 244 c 2
 375 131 l 2x44
 375 128 372 125 369 125 c 2
 256 125 l 2
631 125 m 2
 628 125 625 128 625 131 c 2
 625 244 l 2
 625 247 628 250 631 250 c 2
 744 250 l 2
 747 250 750 247 750 244 c 2
 750 131 l 2x41
 750 128 747 125 744 125 c 2
 631 125 l 2
381 -125 m 2x82
 378 -125 375 -122 375 -119 c 2
 375 119 l 2
 375 122 378 125 381 125 c 2
 619 125 l 2
 622 125 625 122 625 119 c 2
 625 -119 l 2
 625 -122 622 -125 619 -125 c 2
 381 -125 l 2x82
EndSplineSet
EndChar

StartChar: w
Encoding: 119 119 60
Width: 1000
Flags: MW
HStem: -125 250<131 494 379.5 494 381 494 381 631 631 750> 125 125<381 619 494 619 504.5 619 506 619 506 750> 1355 20G<131 244 244 245.5 756 869 869 870.5> 1355 20G<131 244 244 245.5 756 869 869 870.5>
VStem: 125 125<-119 1369> 375 125<-119 119> 500 125<-120.5 119 -119 119 131 244> 750 125<125 1369>
LayerCount: 2
Fore
SplineSet
506 125 m 2x4b
 503 125 500 128 500 131 c 2
 500 244 l 2
 500 247 503 250 506 250 c 2
 619 250 l 2
 622 250 625 247 625 244 c 2
 625 131 l 2
 625 128 622 125 619 125 c 2
 506 125 l 2x4b
131 -125 m 2xa9
 128 -125 125 -122 125 -119 c 2
 125 1369 l 2
 125 1372 128 1375 131 1375 c 2
 244 1375 l 2
 247 1375 250 1372 250 1369 c 2
 250 -119 l 2
 250 -122 247 -125 244 -125 c 2
 131 -125 l 2xa9
381 -125 m 2
 378 -125 375 -122 375 -119 c 2
 375 119 l 2
 375 122 378 125 381 125 c 2
 494 125 l 2
 497 125 500 122 500 119 c 2
 500 -119 l 2x8d
 500 -122 497 -125 494 -125 c 2
 381 -125 l 2
631 -125 m 2
 628 -125 625 -122 625 -119 c 2
 625 119 l 2
 625 122 628 125 631 125 c 2
 750 125 l 1
 750 1369 l 2
 750 1372 753 1375 756 1375 c 2
 869 1375 l 2xab
 872 1375 875 1372 875 1369 c 2
 875 -119 l 2
 875 -122 872 -125 869 -125 c 2
 631 -125 l 2
EndSplineSet
EndChar

StartChar: x
Encoding: 120 120 61
Width: 1000
Flags: MW
HStem: -125 21G<129.5 131 131 244 754.5 756 756 869> -125 21G<129.5 131 131 244 754.5 756 756 869> 250 250<131 369 244 369 254.5 369 256 369 631 744> 500 250<256 369 254.5 370.5 254.5 381 381 619 631 744> 750 250<129.5 256 256 369 631 744> 1355 20G<131 244 244 245.5 756 869 869 870.5> 1355 20G<131 244 244 245.5 756 869 869 870.5>
VStem: 125 125<-119 244 1006 1369> 250 125<-119 256 256 494 756 994> 375 250<254.5 494 256 494 506 744 756 994> 625 125<256 494 756 994> 750 125<-119 244 1006 1369>
LayerCount: 2
Fore
SplineSet
131 1000 m 2x0d
 128 1000 125 1003 125 1006 c 2
 125 1369 l 2
 125 1372 128 1375 131 1375 c 2
 244 1375 l 2
 247 1375 250 1372 250 1369 c 2
 250 1006 l 2
 250 1003 247 1000 244 1000 c 2
 131 1000 l 2x0d
756 1000 m 2
 753 1000 750 1003 750 1006 c 2
 750 1369 l 2
 750 1372 753 1375 756 1375 c 2
 869 1375 l 2
 872 1375 875 1372 875 1369 c 2
 875 1006 l 2x0c10
 875 1003 872 1000 869 1000 c 2
 756 1000 l 2
256 750 m 2
 253 750 250 753 250 756 c 2
 250 994 l 2
 250 997 253 1000 256 1000 c 2
 369 1000 l 2
 372 1000 375 997 375 994 c 2
 375 756 l 2x0880
 375 753 372 750 369 750 c 2
 256 750 l 2
631 750 m 2
 628 750 625 753 625 756 c 2
 625 994 l 2
 625 997 628 1000 631 1000 c 2
 744 1000 l 2
 747 1000 750 997 750 994 c 2
 750 756 l 2x0820
 750 753 747 750 744 750 c 2
 631 750 l 2
381 500 m 2x1040
 378 500 375 503 375 506 c 2
 375 744 l 2
 375 747 378 750 381 750 c 2
 619 750 l 2
 622 750 625 747 625 744 c 2
 625 506 l 2
 625 503 622 500 619 500 c 2
 381 500 l 2x1040
256 250 m 2x2080
 253 250 250 253 250 256 c 2
 250 494 l 2
 250 497 253 500 256 500 c 2
 369 500 l 2
 372 500 375 497 375 494 c 2
 375 256 l 2
 375 253 372 250 369 250 c 2
 256 250 l 2x2080
631 250 m 2
 628 250 625 253 625 256 c 2
 625 494 l 2
 625 497 628 500 631 500 c 2
 744 500 l 2
 747 500 750 497 750 494 c 2
 750 256 l 2x2020
 750 253 747 250 744 250 c 2
 631 250 l 2
131 -125 m 2xa1
 128 -125 125 -122 125 -119 c 2
 125 244 l 2
 125 247 128 250 131 250 c 2
 244 250 l 2
 247 250 250 247 250 244 c 2
 250 -119 l 2
 250 -122 247 -125 244 -125 c 2
 131 -125 l 2xa1
756 -125 m 2
 753 -125 750 -122 750 -119 c 2
 750 244 l 2
 750 247 753 250 756 250 c 2
 869 250 l 2
 872 250 875 247 875 244 c 2
 875 -119 l 2xa010
 875 -122 872 -125 869 -125 c 2
 756 -125 l 2
EndSplineSet
EndChar

StartChar: y
Encoding: 121 121 62
Width: 1000
Flags: MW
HStem: -125 21G<379.5 381 381 494> -125 21G<379.5 381 381 494> 625 125<129.5 256 256 369 506 744> 1355 20G<131 244 244 245.5 756 869 869 870.5> 1355 20G<131 244 244 245.5 756 869 869 870.5>
VStem: 125 125<756 1369> 250 125<631 744> 375 125<-119 619 631 744> 750 125<629.5 756 631 756 756 1369>
LayerCount: 2
Fore
SplineSet
131 750 m 2x3480
 128 750 125 753 125 756 c 2
 125 1369 l 2
 125 1372 128 1375 131 1375 c 2
 244 1375 l 2
 247 1375 250 1372 250 1369 c 2
 250 756 l 2
 250 753 247 750 244 750 c 2
 131 750 l 2x3480
756 750 m 2
 753 750 750 753 750 756 c 2
 750 1369 l 2
 750 1372 753 1375 756 1375 c 2
 869 1375 l 2
 872 1375 875 1372 875 1369 c 2
 875 756 l 2
 875 753 872 750 869 750 c 2
 756 750 l 2
256 625 m 2
 253 625 250 628 250 631 c 2
 250 744 l 2
 250 747 253 750 256 750 c 2
 369 750 l 2
 372 750 375 747 375 744 c 2
 375 631 l 2x2280
 375 628 372 625 369 625 c 2
 256 625 l 2
506 625 m 2
 503 625 500 628 500 631 c 2
 500 744 l 2x2180
 500 747 503 750 506 750 c 2
 744 750 l 2
 747 750 750 747 750 744 c 2
 750 631 l 2
 750 628 747 625 744 625 c 2
 506 625 l 2
381 -125 m 2xa180
 378 -125 375 -122 375 -119 c 2
 375 619 l 2
 375 622 378 625 381 625 c 2
 494 625 l 2
 497 625 500 622 500 619 c 2
 500 -119 l 2
 500 -122 497 -125 494 -125 c 2
 381 -125 l 2xa180
EndSplineSet
EndChar

StartChar: z
Encoding: 122 122 63
Width: 1000
Flags: MW
HStem: -125 125<129.5 869 250 869 250 869> 1250 125<129.5 869 131 750>
VStem: 125 125<0 119 0 119 0 120.5> 250 125<0 131 131 369> 375 125<131 381 381 619> 500 125<381 631 631 869> 625 125<631 881 881 1119> 750 125<1131 1250 1250 1250>
LayerCount: 2
Fore
SplineSet
131 1250 m 2xe1
 128 1250 125 1253 125 1256 c 2
 125 1369 l 2
 125 1372 128 1375 131 1375 c 2
 869 1375 l 2
 872 1375 875 1372 875 1369 c 2
 875 1131 l 2
 875 1128 872 1125 869 1125 c 2
 756 1125 l 2
 753 1125 750 1128 750 1131 c 2
 750 1250 l 1
 131 1250 l 2xe1
631 875 m 2
 628 875 625 878 625 881 c 2
 625 1119 l 2
 625 1122 628 1125 631 1125 c 2
 744 1125 l 2
 747 1125 750 1122 750 1119 c 2
 750 881 l 2xc2
 750 878 747 875 744 875 c 2
 631 875 l 2
506 625 m 2
 503 625 500 628 500 631 c 2
 500 869 l 2
 500 872 503 875 506 875 c 2
 619 875 l 2
 622 875 625 872 625 869 c 2
 625 631 l 2xc4
 625 628 622 625 619 625 c 2
 506 625 l 2
381 375 m 2
 378 375 375 378 375 381 c 2
 375 619 l 2
 375 622 378 625 381 625 c 2
 494 625 l 2
 497 625 500 622 500 619 c 2
 500 381 l 2xc8
 500 378 497 375 494 375 c 2
 381 375 l 2
256 125 m 2
 253 125 250 128 250 131 c 2
 250 369 l 2
 250 372 253 375 256 375 c 2
 369 375 l 2
 372 375 375 372 375 369 c 2
 375 131 l 2xd0
 375 128 372 125 369 125 c 2
 256 125 l 2
131 -125 m 2
 128 -125 125 -122 125 -119 c 2
 125 119 l 2
 125 122 128 125 131 125 c 2
 244 125 l 2
 247 125 250 122 250 119 c 2
 250 0 l 1
 869 0 l 2
 872 0 875 -3 875 -6 c 2
 875 -119 l 2xe1
 875 -122 872 -125 869 -125 c 2
 131 -125 l 2
EndSplineSet
EndChar

